<svg xmlns="http://www.w3.org/2000/svg" xmlns:xlink="http://www.w3.org/1999/xlink" width="1920" height="940" viewBox="0 0 1920 940"><defs><style>.a{fill:#fff;}.b{fill:none;}.c{opacity:0.998;fill:url(#a);}.d,.j{mix-blend-mode:multiply;}.d,.i,.j,.l{isolation:isolate;}.d{clip-path:url(#b);}.e,.j{clip-path:url(#c);}.f,.h{fill:#2b68a8;}.f,.g{opacity:0.03;}.i{clip-path:url(#d);}.k,.m{fill:#045fbf;}.k,.l{opacity:0.35;}</style><linearGradient id="a" x1="1.595" y1="0.5" x2="-0.191" y2="0.5" gradientUnits="objectBoundingBox"><stop offset="0" stop-color="#6addd7"/><stop offset="1" stop-color="#3e98f5"/></linearGradient><clipPath id="b"><rect class="a" width="1920" height="536" transform="translate(0 2693)"/></clipPath><clipPath id="c"><rect class="b" width="1920" height="1080" transform="translate(-217.041 -5255.446)"/></clipPath><clipPath id="d"><rect class="a" width="1920" height="404" transform="translate(0 3229)"/></clipPath></defs><g transform="translate(0 -2693)"><rect class="a" width="1920" height="940" transform="translate(0 2693)"/><rect class="c" width="1920" height="404" transform="translate(0 3229)"/><g class="d"><g transform="translate(217.041 7930.446)"><g class="e"><path class="f" d="M925.025-4792.034a17.13,17.13,0,0,1-17.11-17.111,17.13,17.13,0,0,1,17.11-17.111,17.13,17.13,0,0,1,17.112,17.111A17.13,17.13,0,0,1,925.025-4792.034Zm0-28.222a11.123,11.123,0,0,0-11.11,11.111,11.123,11.123,0,0,0,11.11,11.111,11.124,11.124,0,0,0,11.112-11.111A11.124,11.124,0,0,0,925.025-4820.256Z"/><path class="f" d="M1774.4-4912.491a17.13,17.13,0,0,1-17.111-17.111,17.13,17.13,0,0,1,17.111-17.111,17.13,17.13,0,0,1,17.111,17.111A17.13,17.13,0,0,1,1774.4-4912.491Zm0-28.222a11.123,11.123,0,0,0-11.111,11.111,11.124,11.124,0,0,0,11.111,11.111,11.124,11.124,0,0,0,11.111-11.111A11.123,11.123,0,0,0,1774.4-4940.713Z"/><path class="f" d="M1579.818-5202.824a17.13,17.13,0,0,1-17.111-17.111,17.13,17.13,0,0,1,17.111-17.111,17.13,17.13,0,0,1,17.112,17.111A17.13,17.13,0,0,1,1579.818-5202.824Zm0-28.222a11.124,11.124,0,0,0-11.111,11.111,11.123,11.123,0,0,0,11.111,11.111,11.124,11.124,0,0,0,11.112-11.111A11.125,11.125,0,0,0,1579.818-5231.046Z"/><path class="f" d="M925.025-4915.58a17.13,17.13,0,0,1-17.11-17.111,17.13,17.13,0,0,1,17.11-17.111,17.13,17.13,0,0,1,17.112,17.111A17.13,17.13,0,0,1,925.025-4915.58Zm0-28.222a11.123,11.123,0,0,0-11.11,11.111,11.123,11.123,0,0,0,11.11,11.111,11.124,11.124,0,0,0,11.112-11.111A11.125,11.125,0,0,0,925.025-4943.8Z"/><path class="f" d="M-307.344-5286.217a17.131,17.131,0,0,1-17.111-17.111,17.13,17.13,0,0,1,17.111-17.111,17.13,17.13,0,0,1,17.111,17.111A17.13,17.13,0,0,1-307.344-5286.217Zm0-28.222a11.123,11.123,0,0,0-11.111,11.111,11.124,11.124,0,0,0,11.111,11.111,11.124,11.124,0,0,0,11.111-11.111A11.123,11.123,0,0,0-307.344-5314.439Z"/><path class="f" d="M-236.3-4056.937a17.13,17.13,0,0,1-17.111-17.111,17.13,17.13,0,0,1,17.111-17.111,17.13,17.13,0,0,1,17.111,17.111A17.13,17.13,0,0,1-236.3-4056.937Zm0-28.222a11.124,11.124,0,0,0-11.111,11.111,11.123,11.123,0,0,0,11.111,11.111,11.123,11.123,0,0,0,11.111-11.111A11.124,11.124,0,0,0-236.3-4085.159Z"/><g class="g"><path class="h" d="M-31.433-3906l-106.757-40.7v-265.726l73.074-73.073,4.242,4.243-71.316,71.316v259.107L-29.3-3911.607Z"/><path class="h" d="M-75.782-3887.858l-106.756-40.7v-297.98l86.647-86.648,4.242,4.243-84.89,84.891v291.361l102.893,39.227Z"/><path class="h" d="M-120.131-3875.762l-106.757-40.7v-322.17L-121.024-4344.5l4.242,4.243-104.106,104.106V-3920.6l102.894,39.227Z"/><path class="h" d="M-53.082-4276.188a17.058,17.058,0,0,1-12.1-5,17.13,17.13,0,0,1,0-24.2,17.13,17.13,0,0,1,24.2,0,17.13,17.13,0,0,1,0,24.2A17.057,17.057,0,0,1-53.082-4276.188Zm0-28.209a11.078,11.078,0,0,0-7.857,3.249,11.123,11.123,0,0,0,0,15.713,11.124,11.124,0,0,0,15.714,0,11.123,11.123,0,0,0,0-15.713A11.078,11.078,0,0,0-53.082-4304.4Z"/><path class="h" d="M-84-4305.743a17.061,17.061,0,0,1-12.1-5,17.13,17.13,0,0,1,0-24.2,17.13,17.13,0,0,1,24.2,0,17.132,17.132,0,0,1,0,24.2A17.062,17.062,0,0,1-84-4305.743Zm0-28.209a11.075,11.075,0,0,0-7.857,3.25,11.124,11.124,0,0,0,0,15.713,11.125,11.125,0,0,0,15.714,0,11.124,11.124,0,0,0,0-15.713A11.073,11.073,0,0,0-84-4333.952Z"/><path class="h" d="M-111.365-4334.825a17.058,17.058,0,0,1-12.1-5,17.13,17.13,0,0,1,0-24.2,17.129,17.129,0,0,1,24.2,0,17.13,17.13,0,0,1,0,24.2A17.058,17.058,0,0,1-111.365-4334.825Zm0-28.209a11.078,11.078,0,0,0-7.857,3.249,11.124,11.124,0,0,0,0,15.713,11.124,11.124,0,0,0,15.714,0,11.124,11.124,0,0,0,0-15.713A11.078,11.078,0,0,0-111.365-4363.034Z"/></g><g class="g"><path class="h" d="M1351.058-4844.346l-4.242-4.243,71.316-71.316v-241.957l-85.977-85.977v-375.474h6v372.989l85.977,85.977v246.927Z"/><path class="h" d="M1381.833-4816.66l-4.242-4.243,84.891-84.89v-267.476l-87.006-87.005,0-1.245.425-361.8,6,.007-.424,360.551,87,87v272.447Z"/><path class="h" d="M1406.967-4785.349l-4.242-4.243L1506.83-4893.7v-302.138l-82.451-82.452V-5626.4h6v345.627l82.451,82.452v307.108Z"/><path class="h" d="M1339.025-4819.451a17.059,17.059,0,0,1-12.1-5,17.13,17.13,0,0,1,0-24.2,17.129,17.129,0,0,1,24.2,0,17.13,17.13,0,0,1,0,24.2A17.062,17.062,0,0,1,1339.025-4819.451Zm0-28.209a11.075,11.075,0,0,0-7.857,3.25,11.124,11.124,0,0,0,0,15.713,11.125,11.125,0,0,0,15.714,0,11.124,11.124,0,0,0,0-15.713A11.075,11.075,0,0,0,1339.025-4847.66Z"/><path class="h" d="M1369.946-4789.888a17,17,0,0,1-12.1-5.012,17,17,0,0,1-5.011-12.1,17,17,0,0,1,5.011-12.1,17,17,0,0,1,12.1-5.012,17,17,0,0,1,12.1,5.012,17.132,17.132,0,0,1,0,24.2h0A17,17,0,0,1,1369.946-4789.888Zm0-28.223a11.034,11.034,0,0,0-7.856,3.255,11.036,11.036,0,0,0-3.254,7.856,11.036,11.036,0,0,0,3.254,7.857,11.034,11.034,0,0,0,7.856,3.255,11.04,11.04,0,0,0,7.858-3.255,11.125,11.125,0,0,0,0-15.713A11.04,11.04,0,0,0,1369.946-4818.111Z"/><path class="h" d="M1397.308-4760.814a17.062,17.062,0,0,1-12.1-5,17.13,17.13,0,0,1,0-24.2,17.129,17.129,0,0,1,24.2,0,17.13,17.13,0,0,1,0,24.2A17.061,17.061,0,0,1,1397.308-4760.814Zm0-28.209a11.074,11.074,0,0,0-7.857,3.25,11.123,11.123,0,0,0,0,15.713,11.125,11.125,0,0,0,15.714,0,11.124,11.124,0,0,0,0-15.713A11.075,11.075,0,0,0,1397.308-4789.023Z"/></g><g class="g"><path class="h" d="M768.131-4537.191l-4.242-4.243,241.025-241.025v-195.07L900.089-5082.354V-5603.69h6v518.851l104.825,104.825v200.041l-.879.878Z"/><path class="h" d="M812.479-4523.081l-4.242-4.243,241.025-241.025v-227.323L944.437-5100.5v-521.336h6v518.851l104.825,104.825v232.294Z"/><path class="h" d="M856.829-4510.985l-4.242-4.243,241.024-241.025v-251.514L988.787-5112.592v-521.336h6v518.851l104.824,104.825v256.484Z"/><path class="h" d="M755.93-4512.131a17.057,17.057,0,0,1-12.1-5,17.13,17.13,0,0,1,0-24.2,17.13,17.13,0,0,1,24.2,0,17.13,17.13,0,0,1,0,24.2A17.057,17.057,0,0,1,755.93-4512.131Zm0-28.208a11.078,11.078,0,0,0-7.857,3.249,11.123,11.123,0,0,0,0,15.713,11.124,11.124,0,0,0,15.714,0,11.123,11.123,0,0,0,0-15.713A11.078,11.078,0,0,0,755.93-4540.339Z"/><path class="h" d="M802.295-4498.019a17.058,17.058,0,0,1-12.1-5,17,17,0,0,1-5.012-12.1,17,17,0,0,1,5.012-12.1,17.13,17.13,0,0,1,24.2,0,17,17,0,0,1,5.012,12.1,17,17,0,0,1-5.012,12.1A17.057,17.057,0,0,1,802.295-4498.019Zm0-28.209a11.078,11.078,0,0,0-7.857,3.249,11.04,11.04,0,0,0-3.254,7.856,11.039,11.039,0,0,0,3.254,7.857,11.124,11.124,0,0,0,15.714,0,11.035,11.035,0,0,0,3.254-7.857,11.036,11.036,0,0,0-3.254-7.856A11.078,11.078,0,0,0,802.295-4526.228Z"/><path class="h" d="M846.644-4485.924a17.057,17.057,0,0,1-12.1-5,17.13,17.13,0,0,1,0-24.2,17.13,17.13,0,0,1,24.2,0,17.13,17.13,0,0,1,0,24.2A17.057,17.057,0,0,1,846.644-4485.924Zm0-28.209a11.078,11.078,0,0,0-7.857,3.249,11.123,11.123,0,0,0,0,15.713,11.124,11.124,0,0,0,15.714,0,11.123,11.123,0,0,0,0-15.713A11.078,11.078,0,0,0,846.644-4514.133Z"/></g><g class="g"><path class="h" d="M-299.168-4542.279H-552.394v-6h250.741l250.976-250.976H368.857v6H-48.193Z"/><path class="h" d="M382.969-4778.135a17.131,17.131,0,0,1-17.112-17.111,17.13,17.13,0,0,1,17.112-17.111,17.13,17.13,0,0,1,17.111,17.111A17.131,17.131,0,0,1,382.969-4778.135Zm0-28.222a11.124,11.124,0,0,0-11.112,11.111,11.125,11.125,0,0,0,11.112,11.111,11.124,11.124,0,0,0,11.111-11.111A11.123,11.123,0,0,0,382.969-4806.357Z"/><path class="h" d="M-283.04-4493.9H-536.267v-6h250.741L-34.55-4750.874H370.873v6H-32.066Z"/><path class="h" d="M382.969-4729.754a17.131,17.131,0,0,1-17.112-17.112,17.131,17.131,0,0,1,17.112-17.111,17.131,17.131,0,0,1,17.111,17.111A17.131,17.131,0,0,1,382.969-4729.754Zm0-28.223a11.124,11.124,0,0,0-11.112,11.111,11.125,11.125,0,0,0,11.112,11.112,11.124,11.124,0,0,0,11.111-11.112A11.124,11.124,0,0,0,382.969-4757.977Z"/><path class="h" d="M-266.913-4445.517H-520.14v-6H-269.4l250.976-250.976h389.3v6H-15.939Z"/><path class="h" d="M382.969-4681.374a17.13,17.13,0,0,1-17.112-17.111,17.131,17.131,0,0,1,17.112-17.111,17.131,17.131,0,0,1,17.111,17.111A17.13,17.13,0,0,1,382.969-4681.374Zm0-28.222a11.125,11.125,0,0,0-11.112,11.111,11.124,11.124,0,0,0,11.112,11.111,11.123,11.123,0,0,0,11.111-11.111A11.124,11.124,0,0,0,382.969-4709.6Z"/><path class="h" d="M-250.787-4397.136H-504.013v-6h250.741L-2.3-4654.112h373.17v6H.188Z"/><path class="h" d="M382.969-4632.993a17.13,17.13,0,0,1-17.112-17.111,17.13,17.13,0,0,1,17.112-17.111A17.13,17.13,0,0,1,400.08-4650.1,17.13,17.13,0,0,1,382.969-4632.993Zm0-28.222a11.124,11.124,0,0,0-11.112,11.111,11.124,11.124,0,0,0,11.112,11.111A11.123,11.123,0,0,0,394.08-4650.1,11.123,11.123,0,0,0,382.969-4661.215Z"/></g><g class="g"><path class="h" d="M673.757-4762.736a17.131,17.131,0,0,1-17.112-17.111,17.13,17.13,0,0,1,17.112-17.111,17.13,17.13,0,0,1,17.111,17.111A17.131,17.131,0,0,1,673.757-4762.736Zm0-28.222a11.124,11.124,0,0,0-11.112,11.111,11.125,11.125,0,0,0,11.112,11.111,11.124,11.124,0,0,0,11.111-11.111A11.123,11.123,0,0,0,673.757-4790.958Z"/><path class="h" d="M560.24-3916.116h-6v-356.035l114.911-114.91,1.951-377.807,6,.031-1.965,380.274-114.9,114.9Z"/><path class="h" d="M636.693-4762.736a17.131,17.131,0,0,1-17.111-17.111,17.13,17.13,0,0,1,17.111-17.111,17.13,17.13,0,0,1,17.112,17.111A17.131,17.131,0,0,1,636.693-4762.736Zm0-28.222a11.123,11.123,0,0,0-11.111,11.111,11.124,11.124,0,0,0,11.111,11.111,11.125,11.125,0,0,0,11.112-11.111A11.124,11.124,0,0,0,636.693-4790.958Z"/><path class="h" d="M523.954-3932.243h-6v-356.035l114.9-114.9v-361.093h6V-4400.7l-114.9,114.9Z"/><path class="h" d="M599.63-4762.736a17.131,17.131,0,0,1-17.112-17.111,17.13,17.13,0,0,1,17.112-17.111,17.13,17.13,0,0,1,17.11,17.111A17.13,17.13,0,0,1,599.63-4762.736Zm0-28.222a11.124,11.124,0,0,0-11.112,11.111,11.125,11.125,0,0,0,11.112,11.111,11.124,11.124,0,0,0,11.11-11.111A11.123,11.123,0,0,0,599.63-4790.958Z"/><path class="h" d="M487.669-3948.37h-6v-356.035l114.9-114.9v-344.966h6v347.451l-114.9,114.9Z"/><path class="h" d="M562.565-4762.736a17.13,17.13,0,0,1-17.11-17.111,17.13,17.13,0,0,1,17.11-17.111,17.13,17.13,0,0,1,17.112,17.111A17.131,17.131,0,0,1,562.565-4762.736Zm0-28.222a11.123,11.123,0,0,0-11.11,11.111,11.124,11.124,0,0,0,11.11,11.111,11.125,11.125,0,0,0,11.112-11.111A11.124,11.124,0,0,0,562.565-4790.958Z"/><path class="h" d="M451.383-3930.734h-6v-389.8l114.905-114.9v-328.839h6v331.325l-114.905,114.9Z"/></g><g class="g"><path class="h" d="M108.408-4948.277a17.057,17.057,0,0,1-12.1-5,17.132,17.132,0,0,1,0-24.2,17.131,17.131,0,0,1,24.2,0,17.13,17.13,0,0,1,0,24.2A17.058,17.058,0,0,1,108.408-4948.277Zm0-28.208a11.074,11.074,0,0,0-7.857,3.249,11.123,11.123,0,0,0,0,15.713,11.123,11.123,0,0,0,15.713,0,11.123,11.123,0,0,0,0-15.713A11.075,11.075,0,0,0,108.409-4976.485Z"/><path class="h" d="M107.425-4979.322l-1.011-441.156,114.907-114.907v-353.55h6V-5532.9L112.42-5418l1,438.663Z"/><path class="h" d="M149.842-4949.738a17.057,17.057,0,0,1-12.1-5,17.13,17.13,0,0,1,0-24.2,17.13,17.13,0,0,1,24.2,0,17.13,17.13,0,0,1,0,24.2A17.057,17.057,0,0,1,149.842-4949.738Zm0-28.209a11.075,11.075,0,0,0-7.858,3.249,11.124,11.124,0,0,0,0,15.713,11.124,11.124,0,0,0,15.714,0,11.124,11.124,0,0,0,0-15.713A11.079,11.079,0,0,0,149.843-4977.947Z"/><path class="h" d="M153.849-4980.874h-6v-423.48l114.905-114.9v-353.549h6v356.035l-114.905,114.9Z"/><path class="h" d="M191.275-4948.1a16.993,16.993,0,0,1-12.1-5.011,17.13,17.13,0,0,1,0-24.2,17,17,0,0,1,12.1-5.012,17,17,0,0,1,12.1,5.012,17.13,17.13,0,0,1,0,24.2h0A17,17,0,0,1,191.275-4948.1Zm0-28.222a11.034,11.034,0,0,0-7.856,3.255,11.123,11.123,0,0,0,0,15.713,11.033,11.033,0,0,0,7.856,3.254,11.037,11.037,0,0,0,7.858-3.254h0a11.123,11.123,0,0,0,0-15.713A11.039,11.039,0,0,0,191.275-4976.326Z"/><path class="h" d="M195.283-4977.785h-6v-410.442l114.905-114.9v-353.55h6v356.035l-114.905,114.9Z"/><path class="h" d="M232.709-4949.565a17,17,0,0,1-12.1-5.012,17.13,17.13,0,0,1,0-24.2,17,17,0,0,1,12.1-5.012,17,17,0,0,1,12.1,5.012,17.13,17.13,0,0,1,0,24.2h0A17,17,0,0,1,232.709-4949.565Zm0-28.223a11.04,11.04,0,0,0-7.858,3.255,11.124,11.124,0,0,0,0,15.713,11.04,11.04,0,0,0,7.858,3.255,11.036,11.036,0,0,0,7.856-3.255h0a11.124,11.124,0,0,0,0-15.713A11.036,11.036,0,0,0,232.709-4977.788Z"/><path class="h" d="M236.717-4978.772h-6V-5372.1l114.9-114.9v-353.549h6v356.035l-114.9,114.9Z"/></g><g class="g"><path class="h" d="M2049.01-4329.278a17.131,17.131,0,0,1-17.112-17.111,17.13,17.13,0,0,1,17.112-17.111,17.13,17.13,0,0,1,17.111,17.111A17.131,17.131,0,0,1,2049.01-4329.278Zm0-28.222a11.124,11.124,0,0,0-11.112,11.111,11.124,11.124,0,0,0,11.112,11.111,11.124,11.124,0,0,0,11.111-11.111A11.123,11.123,0,0,0,2049.01-4357.5Z"/><path class="h" d="M744.67-4406.564a17.059,17.059,0,0,1-12.1-5,17.13,17.13,0,0,1,0-24.2,17.131,17.131,0,0,1,24.2,0,17.13,17.13,0,0,1,0,24.2A17.056,17.056,0,0,1,744.67-4406.564Zm0-28.209a11.08,11.08,0,0,0-7.858,3.249,11.125,11.125,0,0,0,0,15.714,11.125,11.125,0,0,0,15.714,0,11.125,11.125,0,0,0,0-15.714A11.077,11.077,0,0,0,744.67-4434.773Z"/><path class="h" d="M1306.322-4251.334H914.776l-161.141-161.14,4.242-4.243,159.383,159.382h386.576l90.715-90.714h640.688v6h-638.2Z"/><path class="h" d="M2049.01-4293.759a17.131,17.131,0,0,1-17.112-17.111,17.13,17.13,0,0,1,17.112-17.111,17.13,17.13,0,0,1,17.111,17.111A17.131,17.131,0,0,1,2049.01-4293.759Zm0-28.222a11.125,11.125,0,0,0-11.112,11.111,11.124,11.124,0,0,0,11.112,11.111,11.124,11.124,0,0,0,11.111-11.111A11.124,11.124,0,0,0,2049.01-4321.981Z"/><path class="h" d="M759.252-4347.527a17,17,0,0,1-12.1-5.012,17.129,17.129,0,0,1,0-24.2,17,17,0,0,1,12.1-5.012,16.994,16.994,0,0,1,12.1,5.012,17.129,17.129,0,0,1,0,24.2h0A17,17,0,0,1,759.252-4347.527Zm0-28.222a11.037,11.037,0,0,0-7.857,3.254,11.123,11.123,0,0,0,0,15.713,11.038,11.038,0,0,0,7.857,3.255,11.035,11.035,0,0,0,7.857-3.255h0a11.123,11.123,0,0,0,0-15.713A11.033,11.033,0,0,0,759.252-4375.749Z"/><path class="h" d="M1320.905-4216.5H901.136l-.878-.879L766.2-4351.43l4.242-4.243L903.621-4222.5h414.8l90.715-90.714h626.1v6h-623.62Z"/><path class="h" d="M2049.01-4258.239a17.131,17.131,0,0,1-17.112-17.111,17.13,17.13,0,0,1,17.112-17.111,17.13,17.13,0,0,1,17.111,17.111A17.131,17.131,0,0,1,2049.01-4258.239Zm0-28.222a11.124,11.124,0,0,0-11.112,11.111,11.125,11.125,0,0,0,11.112,11.111,11.124,11.124,0,0,0,11.111-11.111A11.123,11.123,0,0,0,2049.01-4286.461Z"/><path class="h" d="M777.394-4277.289a17.056,17.056,0,0,1-12.1-5,17.13,17.13,0,0,1,0-24.2,17.13,17.13,0,0,1,24.2,0,17.13,17.13,0,0,1,0,24.2h0A17.059,17.059,0,0,1,777.394-4277.289Zm0-28.209a11.079,11.079,0,0,0-7.857,3.249,11.125,11.125,0,0,0,0,15.714,11.126,11.126,0,0,0,15.714,0,11.125,11.125,0,0,0,0-15.714A11.078,11.078,0,0,0,777.4-4305.5Z"/><path class="h" d="M1337.032-4180.52H889.041l-104.7-104.7,4.242-4.242L891.525-4186.52h443.023l90.713-90.714h609.979v6H1427.746Z"/><path class="h" d="M2049.01-4222.72a17.13,17.13,0,0,1-17.112-17.111,17.13,17.13,0,0,1,17.112-17.111,17.13,17.13,0,0,1,17.111,17.111A17.13,17.13,0,0,1,2049.01-4222.72Zm0-28.222a11.124,11.124,0,0,0-11.112,11.111,11.124,11.124,0,0,0,11.112,11.111,11.123,11.123,0,0,0,11.111-11.111A11.123,11.123,0,0,0,2049.01-4250.942Z"/><path class="h" d="M795.537-4212.148a17.058,17.058,0,0,1-12.1-5,17.131,17.131,0,0,1,0-24.2,17.131,17.131,0,0,1,24.2,0,17,17,0,0,1,5.011,12.1,17,17,0,0,1-5.011,12.1A17.059,17.059,0,0,1,795.537-4212.148Zm0-28.209a11.08,11.08,0,0,0-7.858,3.249,11.126,11.126,0,0,0,0,15.714,11.125,11.125,0,0,0,15.714,0h0a11.038,11.038,0,0,0,3.254-7.857,11.037,11.037,0,0,0-3.254-7.857A11.079,11.079,0,0,0,795.538-4240.357Z"/><path class="h" d="M1353.159-4145.616H876.945L804.5-4218.058l4.242-4.243,70.685,70.685h471.243l90.715-90.714h593.851v6H1443.873Z"/><path class="h" d="M2049.01-4187.2a17.13,17.13,0,0,1-17.112-17.111,17.131,17.131,0,0,1,17.112-17.112,17.131,17.131,0,0,1,17.111,17.112A17.13,17.13,0,0,1,2049.01-4187.2Zm0-28.223a11.125,11.125,0,0,0-11.112,11.112,11.125,11.125,0,0,0,11.112,11.111,11.124,11.124,0,0,0,11.111-11.111A11.124,11.124,0,0,0,2049.01-4215.423Z"/><path class="h" d="M814.754-4152.306a17.058,17.058,0,0,1-12.1-5,17.13,17.13,0,0,1,0-24.2,17.129,17.129,0,0,1,24.2,0,17.13,17.13,0,0,1,0,24.2A17.055,17.055,0,0,1,814.754-4152.306Zm0-28.208a11.078,11.078,0,0,0-7.858,3.249,11.124,11.124,0,0,0,0,15.713,11.125,11.125,0,0,0,15.714,0,11.124,11.124,0,0,0,0-15.713A11.077,11.077,0,0,0,814.754-4180.514Z"/><path class="h" d="M1372.375-4109.964H867.939L821.7-4156.2l4.242-4.243,44.479,44.479H1369.89l90.715-90.714h574.635v6H1463.09Z"/></g><g class="g"><path class="h" d="M1594.047-4866.69a17.058,17.058,0,0,1-12.1-5,17,17,0,0,1-5.012-12.1,17,17,0,0,1,5.012-12.1,17.13,17.13,0,0,1,24.2,0h0a17,17,0,0,1,5.012,12.1,17,17,0,0,1-5.012,12.1A17.057,17.057,0,0,1,1594.047-4866.69Zm0-28.209a11.078,11.078,0,0,0-7.857,3.249,11.04,11.04,0,0,0-3.254,7.857,11.04,11.04,0,0,0,3.254,7.856,11.124,11.124,0,0,0,15.714,0,11.036,11.036,0,0,0,3.254-7.856,11.035,11.035,0,0,0-3.254-7.857h0A11.078,11.078,0,0,0,1594.047-4894.9Z"/><path class="h" d="M1607.256-4890.744l-4.242-4.243,161.14-161.14h390.3v6h-387.82Z"/><path class="h" d="M1593.186-4913.268a17.055,17.055,0,0,1-12.1-5,17,17,0,0,1-5.012-12.1,17,17,0,0,1,5.012-12.1,17,17,0,0,1,12.1-5.012,17,17,0,0,1,12.1,5.012h0a17,17,0,0,1,5.012,12.1,17,17,0,0,1-5.012,12.1A17.058,17.058,0,0,1,1593.186-4913.268Zm0-28.214a11.038,11.038,0,0,0-7.857,3.255,11.036,11.036,0,0,0-3.254,7.856,11.034,11.034,0,0,0,3.254,7.857,11.124,11.124,0,0,0,15.714,0,11.039,11.039,0,0,0,3.254-7.857,11.04,11.04,0,0,0-3.254-7.856h0A11.038,11.038,0,0,0,1593.187-4941.482Z"/><path class="h" d="M1603.475-4935.441l-4.242-4.243,151.28-151.281H2169.04v6H1753Z"/><path class="h" d="M1594.341-4959.845a17.057,17.057,0,0,1-12.1-5,17,17,0,0,1-5.012-12.1,17,17,0,0,1,5.012-12.1,17.13,17.13,0,0,1,24.2,0h0a16.994,16.994,0,0,1,5.012,12.1,17,17,0,0,1-5.012,12.1A17.057,17.057,0,0,1,1594.341-4959.845Zm0-28.208a11.078,11.078,0,0,0-7.858,3.249,11.038,11.038,0,0,0-3.254,7.856,11.041,11.041,0,0,0,3.254,7.857,11.125,11.125,0,0,0,15.714,0,11.037,11.037,0,0,0,3.254-7.857,11.034,11.034,0,0,0-3.254-7.856h0A11.077,11.077,0,0,0,1594.342-4988.053Z"/><path class="h" d="M1604.148-4984.187l-4.242-4.243,138.513-138.512h446.749v6H1740.9Z"/><path class="h" d="M1593.952-5006.422a17.061,17.061,0,0,1-12.1-5,17,17,0,0,1-5.011-12.1,17,17,0,0,1,5.011-12.1,17.131,17.131,0,0,1,24.2,0h0a17,17,0,0,1,5.011,12.1,17,17,0,0,1-5.011,12.1A17.062,17.062,0,0,1,1593.952-5006.422Zm0-28.208a11.076,11.076,0,0,0-7.857,3.249,11.032,11.032,0,0,0-3.254,7.856,11.036,11.036,0,0,0,3.254,7.857,11.123,11.123,0,0,0,15.713,0,11.036,11.036,0,0,0,3.254-7.857,11.032,11.032,0,0,0-3.254-7.856h0A11.075,11.075,0,0,0,1593.953-5034.63Z"/><path class="h" d="M1605.359-5032.395l-4.242-4.243,125.207-125.207h474.97v6H1728.809Z"/><path class="h" d="M1593.092-5053a17.061,17.061,0,0,1-12.1-5,17,17,0,0,1-5.012-12.1,17,17,0,0,1,5.012-12.1,17.13,17.13,0,0,1,24.2,0h0a17,17,0,0,1,5.012,12.1,17,17,0,0,1-5.012,12.1A17.062,17.062,0,0,1,1593.092-5053Zm0-28.208a11.078,11.078,0,0,0-7.857,3.249,11.038,11.038,0,0,0-3.254,7.856,11.041,11.041,0,0,0,3.254,7.857,11.125,11.125,0,0,0,15.714,0,11.037,11.037,0,0,0,3.254-7.857,11.034,11.034,0,0,0-3.254-7.856h0A11.078,11.078,0,0,0,1593.092-5081.207Z"/><path class="h" d="M1606.194-5077.889l-4.242-4.243L1717.317-5197.5H2220.51v6H1719.8Z"/></g><g class="g"><path class="h" d="M676.389-4843a17.13,17.13,0,0,1-17.111-17.111,17.131,17.131,0,0,1,17.111-17.111,17.131,17.131,0,0,1,17.112,17.111A17.13,17.13,0,0,1,676.389-4843Zm0-28.222a11.125,11.125,0,0,0-11.111,11.111A11.124,11.124,0,0,0,676.389-4849a11.124,11.124,0,0,0,11.112-11.111A11.125,11.125,0,0,0,676.389-4871.219Z"/><path class="h" d="M680.779-4872.771h-6v-96.991l168.332-168.331v-471.32h6v473.806L680.779-4967.276Z"/></g><g class="g"><path class="h" d="M-51.491-4497.069a17.13,17.13,0,0,1-17.112-17.11,17.131,17.131,0,0,1,17.112-17.111,17.13,17.13,0,0,1,17.11,17.111A17.13,17.13,0,0,1-51.491-4497.069Zm0-28.221A11.124,11.124,0,0,0-62.6-4514.179a11.124,11.124,0,0,0,11.112,11.11,11.123,11.123,0,0,0,11.11-11.11A11.123,11.123,0,0,0-51.491-4525.29Z"/><path class="h" d="M-428.307-4256.154a17.13,17.13,0,0,1-17.11-17.111,17.13,17.13,0,0,1,17.11-17.111,17.13,17.13,0,0,1,17.112,17.111A17.131,17.131,0,0,1-428.307-4256.154Zm0-28.222a11.123,11.123,0,0,0-11.11,11.111,11.124,11.124,0,0,0,11.11,11.111,11.125,11.125,0,0,0,11.112-11.111A11.124,11.124,0,0,0-428.307-4284.376Z"/><path class="h" d="M-291.319-4269.03H-411.473v-6H-293.8L-63.032-4505.8l4.242,4.243Z"/></g><g class="g"><path class="h" d="M-36.048-4178.938a17.13,17.13,0,0,1-17.111-17.111,17.13,17.13,0,0,1,17.111-17.111,17.13,17.13,0,0,1,17.11,17.111A17.129,17.129,0,0,1-36.048-4178.938Zm0-28.222a11.123,11.123,0,0,0-11.111,11.111,11.123,11.123,0,0,0,11.111,11.111,11.123,11.123,0,0,0,11.11-11.111A11.123,11.123,0,0,0-36.048-4207.16Z"/><path class="h" d="M10.281-4009.063A17.13,17.13,0,0,1-6.83-4026.174a17.13,17.13,0,0,1,17.111-17.111,17.13,17.13,0,0,1,17.111,17.111A17.13,17.13,0,0,1,10.281-4009.063Zm0-28.222A11.124,11.124,0,0,0-.83-4026.174a11.123,11.123,0,0,0,11.111,11.111,11.123,11.123,0,0,0,11.111-11.111A11.124,11.124,0,0,0,10.281-4037.285Z"/><path class="h" d="M.284-4033.627-39.2-4073.114v-107.8h6V-4075.6L4.526-4037.87Z"/></g><g class="g"><path class="h" d="M333.55-4194.381a17.131,17.131,0,0,1-17.111-17.111A17.131,17.131,0,0,1,333.55-4228.6a17.131,17.131,0,0,1,17.111,17.111A17.131,17.131,0,0,1,333.55-4194.381Zm0-28.222a11.124,11.124,0,0,0-11.111,11.111,11.125,11.125,0,0,0,11.111,11.111,11.124,11.124,0,0,0,11.111-11.111A11.123,11.123,0,0,0,333.55-4222.6Z"/><path class="h" d="M435.475-4568.107a17.131,17.131,0,0,1-17.111-17.111,17.131,17.131,0,0,1,17.111-17.111,17.131,17.131,0,0,1,17.112,17.111A17.131,17.131,0,0,1,435.475-4568.107Zm0-28.222a11.123,11.123,0,0,0-11.111,11.111,11.124,11.124,0,0,0,11.111,11.111,11.124,11.124,0,0,0,11.112-11.111A11.124,11.124,0,0,0,435.475-4596.329Z"/><path class="h" d="M336.4-4224.156h-6v-129.421l103.47-103.47v-113.037h6v115.522L336.4-4351.092Z"/></g><g class="g"><path class="h" d="M484.893-4685.476a17.13,17.13,0,0,1-17.111-17.111,17.131,17.131,0,0,1,17.111-17.111,17.131,17.131,0,0,1,17.112,17.111A17.13,17.13,0,0,1,484.893-4685.476Zm0-28.222a11.124,11.124,0,0,0-11.111,11.111,11.123,11.123,0,0,0,11.111,11.111,11.124,11.124,0,0,0,11.112-11.111A11.125,11.125,0,0,0,484.893-4713.7Z"/><path class="h" d="M145.142-4861.529a17.13,17.13,0,0,1-17.11-17.11,17.13,17.13,0,0,1,17.11-17.112,17.131,17.131,0,0,1,17.112,17.112A17.131,17.131,0,0,1,145.142-4861.529Zm0-28.222a11.124,11.124,0,0,0-11.11,11.112,11.123,11.123,0,0,0,11.11,11.11,11.124,11.124,0,0,0,11.112-11.11A11.125,11.125,0,0,0,145.142-4889.751Z"/><path class="h" d="M487.672-4714.743h-6l.067-81.114-80.091-80.092H161.975v-6H404.133l83.606,83.606Z"/></g><g class="g"><path class="h" d="M1643.136-4117.165a17.13,17.13,0,0,1-17.112-17.111,17.131,17.131,0,0,1,17.112-17.111,17.131,17.131,0,0,1,17.111,17.111A17.13,17.13,0,0,1,1643.136-4117.165Zm0-28.222a11.124,11.124,0,0,0-11.112,11.111,11.124,11.124,0,0,0,11.112,11.111,11.124,11.124,0,0,0,11.111-11.111A11.123,11.123,0,0,0,1643.136-4145.387Z"/><path class="h" d="M1425.143-3763.948h-6V-3914.99l211.679-211.678,4.242,4.243L1425.143-3912.5Z"/><path class="h" d="M1581.363-4117.165a17.13,17.13,0,0,1-17.111-17.111,17.131,17.131,0,0,1,17.111-17.111,17.13,17.13,0,0,1,17.11,17.111A17.129,17.129,0,0,1,1581.363-4117.165Zm0-28.222a11.123,11.123,0,0,0-11.111,11.111,11.124,11.124,0,0,0,11.111,11.111,11.123,11.123,0,0,0,11.11-11.111A11.123,11.123,0,0,0,1581.363-4145.387Z"/><path class="h" d="M1391.168-3791.745h-6v-151.042l183.881-183.881,4.242,4.243L1391.168-3940.3Z"/><path class="h" d="M1519.59-4117.165a17.13,17.13,0,0,1-17.112-17.111,17.131,17.131,0,0,1,17.112-17.111,17.131,17.131,0,0,1,17.111,17.111A17.13,17.13,0,0,1,1519.59-4117.165Zm0-28.222a11.124,11.124,0,0,0-11.112,11.111,11.124,11.124,0,0,0,11.112,11.111,11.124,11.124,0,0,0,11.111-11.111A11.123,11.123,0,0,0,1519.59-4145.387Z"/><path class="h" d="M1357.193-3819.543h-6v-151.042l156.083-156.083,4.242,4.243L1357.193-3968.1Z"/></g><g class="g"><path class="h" d="M736.618-4674.666a17.129,17.129,0,0,1-17.111-17.11,17.13,17.13,0,0,1,17.111-17.112,17.13,17.13,0,0,1,17.111,17.112A17.129,17.129,0,0,1,736.618-4674.666Zm0-28.222a11.124,11.124,0,0,0-11.111,11.112,11.123,11.123,0,0,0,11.111,11.11,11.123,11.123,0,0,0,11.111-11.11A11.124,11.124,0,0,0,736.618-4702.888Z"/><path class="h" d="M841.633-4974.264a17.13,17.13,0,0,1-17.112-17.111,17.13,17.13,0,0,1,17.112-17.111,17.13,17.13,0,0,1,17.11,17.111A17.13,17.13,0,0,1,841.633-4974.264Zm0-28.222a11.124,11.124,0,0,0-11.112,11.111,11.124,11.124,0,0,0,11.112,11.111,11.123,11.123,0,0,0,11.11-11.111A11.123,11.123,0,0,0,841.633-5002.486Z"/><path class="h" d="M747.85-4697.686l-4.242-4.243,96.414-96.414v-179.443h6v181.929Z"/></g><g class="g"><path class="h" d="M665.579-4245.344a17.129,17.129,0,0,1-17.11-17.111,17.129,17.129,0,0,1,17.11-17.111,17.13,17.13,0,0,1,17.111,17.111A17.13,17.13,0,0,1,665.579-4245.344Zm0-28.222a11.123,11.123,0,0,0-11.11,11.111,11.123,11.123,0,0,0,11.11,11.111,11.123,11.123,0,0,0,11.111-11.111A11.123,11.123,0,0,0,665.579-4273.566Z"/><path class="h" d="M736.554-3717.557,730.4-4019.037l-67.976-67.975v-161.852h6V-4089.5l67.925,67.925.024,1.207,6.178,302.687Z"/></g><g class="g"><path class="h" d="M869.43-4022.962a17.13,17.13,0,0,1-17.111-17.11,17.131,17.131,0,0,1,17.111-17.112,17.131,17.131,0,0,1,17.111,17.112A17.13,17.13,0,0,1,869.43-4022.962Zm0-28.222a11.125,11.125,0,0,0-11.111,11.112,11.124,11.124,0,0,0,11.111,11.11,11.124,11.124,0,0,0,11.111-11.11A11.125,11.125,0,0,0,869.43-4051.184Z"/><path class="h" d="M1240.067-4022.962a17.13,17.13,0,0,1-17.111-17.11,17.131,17.131,0,0,1,17.111-17.112,17.131,17.131,0,0,1,17.112,17.112A17.13,17.13,0,0,1,1240.067-4022.962Zm0-28.222a11.124,11.124,0,0,0-11.111,11.112,11.123,11.123,0,0,0,11.111,11.11,11.124,11.124,0,0,0,11.112-11.11A11.125,11.125,0,0,0,1240.067-4051.184Z"/><rect class="h" width="339.751" height="6" transform="translate(884.719 -4041.837)"/></g><g class="g"><path class="h" d="M1700.275-4007.518a17.13,17.13,0,0,1-17.111-17.111,17.13,17.13,0,0,1,17.111-17.111,17.131,17.131,0,0,1,17.112,17.111A17.131,17.131,0,0,1,1700.275-4007.518Zm0-28.222a11.123,11.123,0,0,0-11.111,11.111,11.124,11.124,0,0,0,11.111,11.111,11.124,11.124,0,0,0,11.112-11.111A11.124,11.124,0,0,0,1700.275-4035.74Z"/><path class="h" d="M1777.492-4084.735a17.129,17.129,0,0,1-17.111-17.11,17.13,17.13,0,0,1,17.111-17.111,17.13,17.13,0,0,1,17.11,17.111A17.129,17.129,0,0,1,1777.492-4084.735Zm0-28.221a11.123,11.123,0,0,0-11.111,11.111,11.123,11.123,0,0,0,11.111,11.11,11.123,11.123,0,0,0,11.11-11.11A11.123,11.123,0,0,0,1777.492-4112.956Z"/><rect class="h" width="82.992" height="6" transform="translate(1707.264 -4034.783) rotate(-44.997)"/></g><g class="g"><path class="h" d="M1258.6-4322.56a17.13,17.13,0,0,1-17.111-17.111,17.131,17.131,0,0,1,17.111-17.111,17.131,17.131,0,0,1,17.112,17.111A17.13,17.13,0,0,1,1258.6-4322.56Zm0-28.222a11.123,11.123,0,0,0-11.111,11.111,11.123,11.123,0,0,0,11.111,11.111,11.124,11.124,0,0,0,11.112-11.111A11.124,11.124,0,0,0,1258.6-4350.782Z"/><path class="h" d="M992.975-4322.56a17.13,17.13,0,0,1-17.11-17.111,17.13,17.13,0,0,1,17.11-17.111,17.131,17.131,0,0,1,17.112,17.111A17.13,17.13,0,0,1,992.975-4322.56Zm0-28.222a11.123,11.123,0,0,0-11.11,11.111,11.123,11.123,0,0,0,11.11,11.111,11.124,11.124,0,0,0,11.112-11.111A11.124,11.124,0,0,0,992.975-4350.782Z"/><rect class="h" width="234.737" height="6" transform="translate(1008.264 -4341.436)"/></g><g class="g"><path class="h" d="M977.533-4470.815a17.13,17.13,0,0,1-17.111-17.111,17.13,17.13,0,0,1,17.111-17.111,17.13,17.13,0,0,1,17.11,17.111A17.13,17.13,0,0,1,977.533-4470.815Zm0-28.222a11.123,11.123,0,0,0-11.111,11.111,11.123,11.123,0,0,0,11.111,11.111,11.123,11.123,0,0,0,11.11-11.111A11.123,11.123,0,0,0,977.533-4499.037Z"/><path class="h" d="M1684.832-4832.187a17.129,17.129,0,0,1-17.111-17.11,17.131,17.131,0,0,1,17.111-17.111,17.131,17.131,0,0,1,17.111,17.111A17.129,17.129,0,0,1,1684.832-4832.187Zm0-28.221a11.124,11.124,0,0,0-11.111,11.111,11.124,11.124,0,0,0,11.111,11.11,11.123,11.123,0,0,0,11.111-11.11A11.123,11.123,0,0,0,1684.832-4860.408Z"/><path class="h" d="M988.765-4490.747l-4.242-4.243,184.65-184.65,338.979-.772,162.822-162.822,4.242,4.243-164.574,164.574-338.979.772Z"/></g><g class="g"><path class="h" d="M1480.981-5363.434a17.129,17.129,0,0,1-17.11-17.11,17.13,17.13,0,0,1,17.11-17.111,17.13,17.13,0,0,1,17.112,17.111A17.13,17.13,0,0,1,1480.981-5363.434Zm0-28.221a11.123,11.123,0,0,0-11.11,11.111,11.123,11.123,0,0,0,11.11,11.11,11.124,11.124,0,0,0,11.112-11.11A11.124,11.124,0,0,0,1480.981-5391.655Z"/><path class="h" d="M1783.669-5363.434a17.13,17.13,0,0,1-17.112-17.11,17.13,17.13,0,0,1,17.112-17.111,17.13,17.13,0,0,1,17.111,17.111A17.129,17.129,0,0,1,1783.669-5363.434Zm0-28.221a11.124,11.124,0,0,0-11.112,11.111,11.124,11.124,0,0,0,11.112,11.11,11.123,11.123,0,0,0,11.111-11.11A11.123,11.123,0,0,0,1783.669-5391.655Z"/><path class="h" d="M1710.629-5303.726H1552.168l-64.2-64.2,4.242-4.243,62.438,62.438h153.492l63.211-63.211,4.242,4.243Z"/></g><g class="g"><path class="h" d="M1189.278-4508.778l-2.556-9.668c30.876-8.166,47.992-6.858,64.547-5.591,16.449,1.26,31.985,2.447,61.229-5.288s42.163-16.449,55.839-25.676c13.763-9.285,27.995-18.887,58.874-27.054s48-6.858,64.55-5.591c16.448,1.258,31.986,2.445,61.232-5.289l2.557,9.667c-30.878,8.167-48,6.859-64.551,5.592-16.451-1.256-31.988-2.446-61.231,5.289s-42.162,16.45-55.838,25.676c-13.764,9.285-28,18.886-58.875,27.054s-48,6.857-64.549,5.591C1234.057-4515.323,1218.521-4516.513,1189.278-4508.778Z"/><path class="h" d="M1198.708-4473.13l-2.557-9.668c30.876-8.166,47.995-6.857,64.547-5.591,16.45,1.259,31.985,2.448,61.229-5.288s42.162-16.449,55.839-25.675c13.763-9.286,27.995-18.886,58.874-27.054s47.995-6.859,64.55-5.592c16.449,1.259,31.986,2.446,61.231-5.289l2.558,9.668c-30.879,8.167-48,6.858-64.552,5.592-16.447-1.257-31.986-2.448-61.23,5.289s-42.163,16.449-55.839,25.676c-13.763,9.285-27.995,18.886-58.874,27.053s-47.995,6.857-64.549,5.591C1243.487-4479.674,1227.951-4480.864,1198.708-4473.13Z"/><path class="h" d="M1208.136-4437.481l-2.556-9.668c30.876-8.166,47.992-6.858,64.547-5.591,16.448,1.259,31.985,2.447,61.229-5.288s42.162-16.449,55.838-25.676c13.764-9.285,28-18.887,58.875-27.054s48-6.855,64.551-5.592c16.45,1.261,31.987,2.449,61.231-5.288l2.557,9.668c-30.879,8.166-48,6.856-64.551,5.592-16.449-1.259-31.986-2.446-61.231,5.288s-42.163,16.449-55.839,25.676c-13.764,9.285-27.995,18.886-58.874,27.054s-48,6.856-64.549,5.591C1252.916-4444.025,1237.378-4445.216,1208.136-4437.481Z"/><path class="h" d="M1605.477-4608.234l-15.6,4.67,2.041,6.819,15.6-4.671a3.553,3.553,0,0,0,2.387-4.425,3.546,3.546,0,0,0-1.715-2.116A3.553,3.553,0,0,0,1605.477-4608.234Z"/><rect class="h" width="28.672" height="21.175" transform="translate(1557.887 -4601.324) rotate(-16.664)"/><rect class="h" width="6.741" height="21.175" transform="translate(1548.3 -4598.455) rotate(-16.664)"/><path class="h" d="M1614.673-4571.891l-15.6,4.671,2.041,6.818,15.6-4.671a3.553,3.553,0,0,0,2.386-4.425,3.545,3.545,0,0,0-1.715-2.116A3.554,3.554,0,0,0,1614.673-4571.891Z"/><rect class="h" width="28.672" height="21.175" transform="translate(1567.082 -4564.981) rotate(-16.664)"/><rect class="h" width="6.741" height="21.175" transform="translate(1557.495 -4562.111) rotate(-16.664)"/><path class="h" d="M1623.868-4535.548l-15.6,4.671,2.041,6.818,15.6-4.671a3.553,3.553,0,0,0,2.386-4.425,3.543,3.543,0,0,0-1.715-2.116A3.551,3.551,0,0,0,1623.868-4535.548Z"/><rect class="h" width="28.672" height="21.175" transform="translate(1576.278 -4528.638) rotate(-16.664)"/><rect class="h" width="6.741" height="21.175" transform="translate(1566.69 -4525.769) rotate(-16.664)"/><path class="h" d="M1154.433-4422.435l15.6-4.67-2.041-6.819-15.6,4.671a3.553,3.553,0,0,0-2.387,4.425,3.546,3.546,0,0,0,1.715,2.116A3.553,3.553,0,0,0,1154.433-4422.435Z"/><rect class="h" width="28.672" height="21.175" transform="translate(1168.483 -4441.409) rotate(-16.664)"/><rect class="h" width="6.741" height="21.175" transform="translate(1199.08 -4450.567) rotate(-16.664)"/><path class="h" d="M1145.237-4458.778l15.6-4.671-2.041-6.818-15.6,4.671a3.553,3.553,0,0,0-2.386,4.425,3.545,3.545,0,0,0,1.715,2.116A3.554,3.554,0,0,0,1145.237-4458.778Z"/><rect class="h" width="28.672" height="21.175" transform="translate(1159.288 -4477.751) rotate(-16.664)"/><rect class="h" width="6.741" height="21.175" transform="translate(1189.885 -4486.911) rotate(-16.664)"/><path class="h" d="M1136.042-4495.121l15.6-4.671-2.041-6.818-15.6,4.67a3.554,3.554,0,0,0-2.386,4.426,3.543,3.543,0,0,0,1.715,2.116A3.551,3.551,0,0,0,1136.042-4495.121Z"/><rect class="h" width="28.672" height="21.175" transform="translate(1150.093 -4514.095) rotate(-16.664)"/><rect class="h" width="6.741" height="21.175" transform="translate(1180.689 -4523.253) rotate(-16.664)"/></g><g class="g"><path class="h" d="M516.166-5090.262c-7.525-15.17-19.82-21.619-37.061-18.943-.9-3.413-1.863-6.863-2.718-10.339-2.689-10.918-5.248-21.862-6.085-33.119-.922-12.392-.027-24.543,5.642-35.866,7.015-14.005,18.678-21.552,34.034-23.3,17.706-2.018,33.673,3.349,48.4,12.683,21,13.31,35.112,32.184,43.507,55.436a127.3,127.3,0,0,1,7.166,46.563,17.8,17.8,0,0,1-.972,5.255,3.423,3.423,0,0,1-4.176,2.445l-.093-.025a20.122,20.122,0,0,1-5.06-1.732,80.929,80.929,0,0,0-56.551-6.522C533.472-5095.682,524.943-5092.806,516.166-5090.262Z"/><path class="h" d="M461.853-5098.125a32.3,32.3,0,0,0,1.956,41.82c-3.422,3.342-6.811,6.731-10.281,10.037-9.351,8.908-18.951,17.517-30.3,23.889-8.022,4.506-16.478,7.771-25.759,8.467-15.456,1.157-27.816-4.722-37.308-16.743-8.332-10.556-12.53-22.854-13.538-36.077-3-39.321,12.967-70.33,42.774-94.851,5.957-4.9,12.807-8.72,19.288-12.972a17.072,17.072,0,0,1,3.666-1.661c3.6-1.278,5.893-.014,6.634,3.76a54.752,54.752,0,0,1,.63,5.924,79.9,79.9,0,0,0,21.075,48.318c6.125,6.7,13.141,12.594,19.756,18.85C460.914-5098.938,461.39-5098.534,461.853-5098.125Z"/><path class="h" d="M481.912-5046.918a32.238,32.238,0,0,0,35.274-22.472c1.014.262,2.051.515,3.078.8,12.686,3.5,25.357,7.046,37.377,12.524a81.472,81.472,0,0,1,21.467,13.792c16.951,15.49,20.287,36.654,8.831,56.56-8.018,13.926-19.846,23.8-34.071,30.787-27.2,13.368-55.279,14.177-83.883,5.089a127.3,127.3,0,0,1-27.742-12.81,20.759,20.759,0,0,1-4.07-3.189c-1.833-1.883-1.816-3.853-.075-5.839a14.5,14.5,0,0,1,3.037-2.637c19.153-12.26,30.685-29.9,36.3-51.635,1.6-6.2,2.722-12.526,4.062-18.8C481.637-5045.429,481.759-5046.113,481.912-5046.918Z"/><path class="h" d="M482.717-5100.408a22.444,22.444,0,0,1,26.1,18.067l.024.132a22.427,22.427,0,0,1-18.088,26.031,22.494,22.494,0,0,1-26.218-18.017c-.015-.081-.03-.162-.044-.244A22.521,22.521,0,0,1,482.717-5100.408Z"/></g><g class="g"><path class="h" d="M227.232-4527.5H79.685l-21.623,21.623-.3,69.241H154.9a15.531,15.531,0,0,1,14.857-11.08,15.528,15.528,0,0,1,15.511,15.51,15.528,15.528,0,0,1-15.511,15.51,15.531,15.531,0,0,1-14.857-11.08H57.727l-.194,45.436h71.615l13.666-13.666h41.453a15.522,15.522,0,0,1,15.047-11.82,15.529,15.529,0,0,1,15.511,15.511,15.528,15.528,0,0,1-15.511,15.509,15.523,15.523,0,0,1-14.607-10.343H146.482l-13.667,13.667H57.5L57.43-4357.7l22.259,22.26H227.868l20.99-22.9,0-147.543Zm-24.969,69.431a15.531,15.531,0,0,1-14.858-11.08H143.547l-12.557-12.558H58.225v-8.859h76.442l12.559,12.557h40.185a15.531,15.531,0,0,1,14.857-11.08,15.526,15.526,0,0,1,15.5,15.51A15.526,15.526,0,0,1,202.263-4458.07Z"/><path class="h" d="M243.19-4548.192H63.867l-26.281,26.281-.772,180.1,27.052,27.052h180.1l25.508-27.827v-179.326Zm14.531,193.3-2.329,2.539-20.991,22.9-2.633,2.871H76.019l-2.6-2.594-22.259-22.259-2.61-2.611.015-3.692.636-148.182.016-3.647,2.582-2.582,21.621-21.623,2.6-2.595H230.9l2.595,2.595,21.624,21.623,2.6,2.6Z"/><path class="h" d="M199.314-4385.67a6.659,6.659,0,0,0,6.651-6.65,6.659,6.659,0,0,0-6.651-6.652,6.659,6.659,0,0,0-6.651,6.652h0A6.659,6.659,0,0,0,199.314-4385.67Z"/><path class="h" d="M202.268-4480.23a6.659,6.659,0,0,0-6.652,6.652,6.66,6.66,0,0,0,6.652,6.65,6.658,6.658,0,0,0,6.652-6.65A6.657,6.657,0,0,0,202.268-4480.23Z"/><path class="h" d="M176.412-4432.211a6.659,6.659,0,0,0-6.652-6.652,6.658,6.658,0,0,0-6.651,6.652,6.66,6.66,0,0,0,6.651,6.652A6.659,6.659,0,0,0,176.412-4432.211Z"/></g><g class="g"><path class="h" d="M1198.025-5047.906l0,238.985-8.847-.005-.014-238.983Z"/><path class="h" d="M1233.419-5047.91l.01,177.029-8.847-.005-.007-177.018Z"/><path class="h" d="M1198.024-5065.6l26.547-.009,0,17.7-26.549,0Z"/><path class="h" d="M1251.127-5140.841l.005,75.234,1.688,0a7.148,7.148,0,0,1,7.153,7.151l-.005,10.545h-26.549v-17.68l.005-35.407-44.254-.01-.005,35.407v17.691h-26.56l.007-10.534a7.171,7.171,0,0,1,7.159-7.168l1.689,0,.006-75.236a39.848,39.848,0,0,1,32.551-39.168,40.62,40.62,0,0,1,7.28-.66A39.835,39.835,0,0,1,1251.127-5140.841Z"/></g><g class="g"><rect class="h" width="12.915" height="63.196" transform="translate(-126.77 -5217.409)"/><path class="h" d="M-182.115-4876.818v33.806H-158.6v-33.806Zm16.011,18.763a4.253,4.253,0,0,1-4.253,4.253,4.253,4.253,0,0,1-4.252-4.253v-7.973h8.5Z"/><path class="h" d="M-86.35-4876.818v33.806h23.517v-33.806Zm16.011,18.763a4.253,4.253,0,0,1-4.253,4.253,4.253,4.253,0,0,1-4.252-4.253v-7.973h8.505Z"/><path class="h" d="M9.044,0H62.58a9.044,9.044,0,0,1,9.044,9.044v10.77a0,0,0,0,1,0,0H0a0,0,0,0,1,0,0V9.044A9.044,9.044,0,0,1,9.044,0Z" transform="translate(-156.124 -5150.243)"/><path class="h" d="M14.574,0H189.5a14.574,14.574,0,0,1,14.574,14.574V224.841a0,0,0,0,1,0,0H0a0,0,0,0,1,0,0V14.574A14.574,14.574,0,0,1,14.574,0Z" transform="translate(-222.755 -5126.459)"/><path class="h" d="M0,0H204.077a0,0,0,0,1,0,0V0a15.585,15.585,0,0,1-15.585,15.585H15.585A15.585,15.585,0,0,1,0,0V0A0,0,0,0,1,0,0Z" transform="translate(-222.755 -4896.971)"/></g></g></g></g><g class="i"><g transform="translate(217.041 7930.446)"><g class="j"><path class="k" d="M925.025-4792.034a17.13,17.13,0,0,1-17.11-17.111,17.13,17.13,0,0,1,17.11-17.111,17.13,17.13,0,0,1,17.112,17.111A17.13,17.13,0,0,1,925.025-4792.034Zm0-28.222a11.123,11.123,0,0,0-11.11,11.111,11.123,11.123,0,0,0,11.11,11.111,11.124,11.124,0,0,0,11.112-11.111A11.124,11.124,0,0,0,925.025-4820.256Z"/><path class="k" d="M1774.4-4912.491a17.13,17.13,0,0,1-17.111-17.111,17.13,17.13,0,0,1,17.111-17.111,17.13,17.13,0,0,1,17.111,17.111A17.13,17.13,0,0,1,1774.4-4912.491Zm0-28.222a11.123,11.123,0,0,0-11.111,11.111,11.124,11.124,0,0,0,11.111,11.111,11.124,11.124,0,0,0,11.111-11.111A11.123,11.123,0,0,0,1774.4-4940.713Z"/><path class="k" d="M1579.818-5202.824a17.13,17.13,0,0,1-17.111-17.111,17.13,17.13,0,0,1,17.111-17.111,17.13,17.13,0,0,1,17.112,17.111A17.13,17.13,0,0,1,1579.818-5202.824Zm0-28.222a11.124,11.124,0,0,0-11.111,11.111,11.123,11.123,0,0,0,11.111,11.111,11.124,11.124,0,0,0,11.112-11.111A11.125,11.125,0,0,0,1579.818-5231.046Z"/><path class="k" d="M925.025-4915.58a17.13,17.13,0,0,1-17.11-17.111,17.13,17.13,0,0,1,17.11-17.111,17.13,17.13,0,0,1,17.112,17.111A17.13,17.13,0,0,1,925.025-4915.58Zm0-28.222a11.123,11.123,0,0,0-11.11,11.111,11.123,11.123,0,0,0,11.11,11.111,11.124,11.124,0,0,0,11.112-11.111A11.125,11.125,0,0,0,925.025-4943.8Z"/><path class="k" d="M-307.344-5286.217a17.131,17.131,0,0,1-17.111-17.111,17.13,17.13,0,0,1,17.111-17.111,17.13,17.13,0,0,1,17.111,17.111A17.13,17.13,0,0,1-307.344-5286.217Zm0-28.222a11.123,11.123,0,0,0-11.111,11.111,11.124,11.124,0,0,0,11.111,11.111,11.124,11.124,0,0,0,11.111-11.111A11.123,11.123,0,0,0-307.344-5314.439Z"/><path class="k" d="M-236.3-4056.937a17.13,17.13,0,0,1-17.111-17.111,17.13,17.13,0,0,1,17.111-17.111,17.13,17.13,0,0,1,17.111,17.111A17.13,17.13,0,0,1-236.3-4056.937Zm0-28.222a11.124,11.124,0,0,0-11.111,11.111,11.123,11.123,0,0,0,11.111,11.111,11.123,11.123,0,0,0,11.111-11.111A11.124,11.124,0,0,0-236.3-4085.159Z"/><g class="l"><path class="m" d="M-31.433-3906l-106.757-40.7v-265.726l73.074-73.073,4.242,4.243-71.316,71.316v259.107L-29.3-3911.607Z"/><path class="m" d="M-75.782-3887.858l-106.756-40.7v-297.98l86.647-86.648,4.242,4.243-84.89,84.891v291.361l102.893,39.227Z"/><path class="m" d="M-120.131-3875.762l-106.757-40.7v-322.17L-121.024-4344.5l4.242,4.243-104.106,104.106V-3920.6l102.894,39.227Z"/><path class="m" d="M-53.082-4276.188a17.058,17.058,0,0,1-12.1-5,17.13,17.13,0,0,1,0-24.2,17.13,17.13,0,0,1,24.2,0,17.13,17.13,0,0,1,0,24.2A17.057,17.057,0,0,1-53.082-4276.188Zm0-28.209a11.078,11.078,0,0,0-7.857,3.249,11.123,11.123,0,0,0,0,15.713,11.124,11.124,0,0,0,15.714,0,11.123,11.123,0,0,0,0-15.713A11.078,11.078,0,0,0-53.082-4304.4Z"/><path class="m" d="M-84-4305.743a17.061,17.061,0,0,1-12.1-5,17.13,17.13,0,0,1,0-24.2,17.13,17.13,0,0,1,24.2,0,17.132,17.132,0,0,1,0,24.2A17.062,17.062,0,0,1-84-4305.743Zm0-28.209a11.075,11.075,0,0,0-7.857,3.25,11.124,11.124,0,0,0,0,15.713,11.125,11.125,0,0,0,15.714,0,11.124,11.124,0,0,0,0-15.713A11.073,11.073,0,0,0-84-4333.952Z"/><path class="m" d="M-111.365-4334.825a17.058,17.058,0,0,1-12.1-5,17.13,17.13,0,0,1,0-24.2,17.129,17.129,0,0,1,24.2,0,17.13,17.13,0,0,1,0,24.2A17.058,17.058,0,0,1-111.365-4334.825Zm0-28.209a11.078,11.078,0,0,0-7.857,3.249,11.124,11.124,0,0,0,0,15.713,11.124,11.124,0,0,0,15.714,0,11.124,11.124,0,0,0,0-15.713A11.078,11.078,0,0,0-111.365-4363.034Z"/></g><g class="l"><path class="m" d="M1351.058-4844.346l-4.242-4.243,71.316-71.316v-241.957l-85.977-85.977v-375.474h6v372.989l85.977,85.977v246.927Z"/><path class="m" d="M1381.833-4816.66l-4.242-4.243,84.891-84.89v-267.476l-87.006-87.005,0-1.245.425-361.8,6,.007-.424,360.551,87,87v272.447Z"/><path class="m" d="M1406.967-4785.349l-4.242-4.243L1506.83-4893.7v-302.138l-82.451-82.452V-5626.4h6v345.627l82.451,82.452v307.108Z"/><path class="m" d="M1339.025-4819.451a17.059,17.059,0,0,1-12.1-5,17.13,17.13,0,0,1,0-24.2,17.129,17.129,0,0,1,24.2,0,17.13,17.13,0,0,1,0,24.2A17.062,17.062,0,0,1,1339.025-4819.451Zm0-28.209a11.075,11.075,0,0,0-7.857,3.25,11.124,11.124,0,0,0,0,15.713,11.125,11.125,0,0,0,15.714,0,11.124,11.124,0,0,0,0-15.713A11.075,11.075,0,0,0,1339.025-4847.66Z"/><path class="m" d="M1369.946-4789.888a17,17,0,0,1-12.1-5.012,17,17,0,0,1-5.011-12.1,17,17,0,0,1,5.011-12.1,17,17,0,0,1,12.1-5.012,17,17,0,0,1,12.1,5.012,17.132,17.132,0,0,1,0,24.2h0A17,17,0,0,1,1369.946-4789.888Zm0-28.223a11.034,11.034,0,0,0-7.856,3.255,11.036,11.036,0,0,0-3.254,7.856,11.036,11.036,0,0,0,3.254,7.857,11.034,11.034,0,0,0,7.856,3.255,11.04,11.04,0,0,0,7.858-3.255,11.125,11.125,0,0,0,0-15.713A11.04,11.04,0,0,0,1369.946-4818.111Z"/><path class="m" d="M1397.308-4760.814a17.062,17.062,0,0,1-12.1-5,17.13,17.13,0,0,1,0-24.2,17.129,17.129,0,0,1,24.2,0,17.13,17.13,0,0,1,0,24.2A17.061,17.061,0,0,1,1397.308-4760.814Zm0-28.209a11.074,11.074,0,0,0-7.857,3.25,11.123,11.123,0,0,0,0,15.713,11.125,11.125,0,0,0,15.714,0,11.124,11.124,0,0,0,0-15.713A11.075,11.075,0,0,0,1397.308-4789.023Z"/></g><g class="l"><path class="m" d="M-299.168-4542.279H-552.394v-6h250.741l250.976-250.976H368.857v6H-48.193Z"/><path class="m" d="M382.969-4778.135a17.131,17.131,0,0,1-17.112-17.111,17.13,17.13,0,0,1,17.112-17.111,17.13,17.13,0,0,1,17.111,17.111A17.131,17.131,0,0,1,382.969-4778.135Zm0-28.222a11.124,11.124,0,0,0-11.112,11.111,11.125,11.125,0,0,0,11.112,11.111,11.124,11.124,0,0,0,11.111-11.111A11.123,11.123,0,0,0,382.969-4806.357Z"/><path class="m" d="M-283.04-4493.9H-536.267v-6h250.741L-34.55-4750.874H370.873v6H-32.066Z"/><path class="m" d="M382.969-4729.754a17.131,17.131,0,0,1-17.112-17.112,17.131,17.131,0,0,1,17.112-17.111,17.131,17.131,0,0,1,17.111,17.111A17.131,17.131,0,0,1,382.969-4729.754Zm0-28.223a11.124,11.124,0,0,0-11.112,11.111,11.125,11.125,0,0,0,11.112,11.112,11.124,11.124,0,0,0,11.111-11.112A11.124,11.124,0,0,0,382.969-4757.977Z"/><path class="m" d="M-266.913-4445.517H-520.14v-6H-269.4l250.976-250.976h389.3v6H-15.939Z"/><path class="m" d="M382.969-4681.374a17.13,17.13,0,0,1-17.112-17.111,17.131,17.131,0,0,1,17.112-17.111,17.131,17.131,0,0,1,17.111,17.111A17.13,17.13,0,0,1,382.969-4681.374Zm0-28.222a11.125,11.125,0,0,0-11.112,11.111,11.124,11.124,0,0,0,11.112,11.111,11.123,11.123,0,0,0,11.111-11.111A11.124,11.124,0,0,0,382.969-4709.6Z"/><path class="m" d="M-250.787-4397.136H-504.013v-6h250.741L-2.3-4654.112h373.17v6H.188Z"/><path class="m" d="M382.969-4632.993a17.13,17.13,0,0,1-17.112-17.111,17.13,17.13,0,0,1,17.112-17.111A17.13,17.13,0,0,1,400.08-4650.1,17.13,17.13,0,0,1,382.969-4632.993Zm0-28.222a11.124,11.124,0,0,0-11.112,11.111,11.124,11.124,0,0,0,11.112,11.111A11.123,11.123,0,0,0,394.08-4650.1,11.123,11.123,0,0,0,382.969-4661.215Z"/></g><g class="l"><path class="m" d="M108.408-4948.277a17.057,17.057,0,0,1-12.1-5,17.132,17.132,0,0,1,0-24.2,17.131,17.131,0,0,1,24.2,0,17.13,17.13,0,0,1,0,24.2A17.058,17.058,0,0,1,108.408-4948.277Zm0-28.208a11.074,11.074,0,0,0-7.857,3.249,11.123,11.123,0,0,0,0,15.713,11.123,11.123,0,0,0,15.713,0,11.123,11.123,0,0,0,0-15.713A11.075,11.075,0,0,0,108.409-4976.485Z"/><path class="m" d="M107.425-4979.322l-1.011-441.156,114.907-114.907v-353.55h6V-5532.9L112.42-5418l1,438.663Z"/><path class="m" d="M149.842-4949.738a17.057,17.057,0,0,1-12.1-5,17.13,17.13,0,0,1,0-24.2,17.13,17.13,0,0,1,24.2,0,17.13,17.13,0,0,1,0,24.2A17.057,17.057,0,0,1,149.842-4949.738Zm0-28.209a11.075,11.075,0,0,0-7.858,3.249,11.124,11.124,0,0,0,0,15.713,11.124,11.124,0,0,0,15.714,0,11.124,11.124,0,0,0,0-15.713A11.079,11.079,0,0,0,149.843-4977.947Z"/><path class="m" d="M153.849-4980.874h-6v-423.48l114.905-114.9v-353.549h6v356.035l-114.905,114.9Z"/><path class="m" d="M191.275-4948.1a16.993,16.993,0,0,1-12.1-5.011,17.13,17.13,0,0,1,0-24.2,17,17,0,0,1,12.1-5.012,17,17,0,0,1,12.1,5.012,17.13,17.13,0,0,1,0,24.2h0A17,17,0,0,1,191.275-4948.1Zm0-28.222a11.034,11.034,0,0,0-7.856,3.255,11.123,11.123,0,0,0,0,15.713,11.033,11.033,0,0,0,7.856,3.254,11.037,11.037,0,0,0,7.858-3.254h0a11.123,11.123,0,0,0,0-15.713A11.039,11.039,0,0,0,191.275-4976.326Z"/><path class="m" d="M195.283-4977.785h-6v-410.442l114.905-114.9v-353.55h6v356.035l-114.905,114.9Z"/><path class="m" d="M232.709-4949.565a17,17,0,0,1-12.1-5.012,17.13,17.13,0,0,1,0-24.2,17,17,0,0,1,12.1-5.012,17,17,0,0,1,12.1,5.012,17.13,17.13,0,0,1,0,24.2h0A17,17,0,0,1,232.709-4949.565Zm0-28.223a11.04,11.04,0,0,0-7.858,3.255,11.124,11.124,0,0,0,0,15.713,11.04,11.04,0,0,0,7.858,3.255,11.036,11.036,0,0,0,7.856-3.255h0a11.124,11.124,0,0,0,0-15.713A11.036,11.036,0,0,0,232.709-4977.788Z"/><path class="m" d="M236.717-4978.772h-6V-5372.1l114.9-114.9v-353.549h6v356.035l-114.9,114.9Z"/></g><g class="l"><path class="m" d="M2049.01-4329.278a17.131,17.131,0,0,1-17.112-17.111,17.13,17.13,0,0,1,17.112-17.111,17.13,17.13,0,0,1,17.111,17.111A17.131,17.131,0,0,1,2049.01-4329.278Zm0-28.222a11.124,11.124,0,0,0-11.112,11.111,11.124,11.124,0,0,0,11.112,11.111,11.124,11.124,0,0,0,11.111-11.111A11.123,11.123,0,0,0,2049.01-4357.5Z"/><path class="m" d="M744.67-4406.564a17.059,17.059,0,0,1-12.1-5,17.13,17.13,0,0,1,0-24.2,17.131,17.131,0,0,1,24.2,0,17.13,17.13,0,0,1,0,24.2A17.056,17.056,0,0,1,744.67-4406.564Zm0-28.209a11.08,11.08,0,0,0-7.858,3.249,11.125,11.125,0,0,0,0,15.714,11.125,11.125,0,0,0,15.714,0,11.125,11.125,0,0,0,0-15.714A11.077,11.077,0,0,0,744.67-4434.773Z"/><path class="m" d="M1306.322-4251.334H914.776l-161.141-161.14,4.242-4.243,159.383,159.382h386.576l90.715-90.714h640.688v6h-638.2Z"/><path class="m" d="M2049.01-4293.759a17.131,17.131,0,0,1-17.112-17.111,17.13,17.13,0,0,1,17.112-17.111,17.13,17.13,0,0,1,17.111,17.111A17.131,17.131,0,0,1,2049.01-4293.759Zm0-28.222a11.125,11.125,0,0,0-11.112,11.111,11.124,11.124,0,0,0,11.112,11.111,11.124,11.124,0,0,0,11.111-11.111A11.124,11.124,0,0,0,2049.01-4321.981Z"/><path class="m" d="M759.252-4347.527a17,17,0,0,1-12.1-5.012,17.129,17.129,0,0,1,0-24.2,17,17,0,0,1,12.1-5.012,16.994,16.994,0,0,1,12.1,5.012,17.129,17.129,0,0,1,0,24.2h0A17,17,0,0,1,759.252-4347.527Zm0-28.222a11.037,11.037,0,0,0-7.857,3.254,11.123,11.123,0,0,0,0,15.713,11.038,11.038,0,0,0,7.857,3.255,11.035,11.035,0,0,0,7.857-3.255h0a11.123,11.123,0,0,0,0-15.713A11.033,11.033,0,0,0,759.252-4375.749Z"/><path class="m" d="M1320.905-4216.5H901.136l-.878-.879L766.2-4351.43l4.242-4.243L903.621-4222.5h414.8l90.715-90.714h626.1v6h-623.62Z"/><path class="m" d="M2049.01-4258.239a17.131,17.131,0,0,1-17.112-17.111,17.13,17.13,0,0,1,17.112-17.111,17.13,17.13,0,0,1,17.111,17.111A17.131,17.131,0,0,1,2049.01-4258.239Zm0-28.222a11.124,11.124,0,0,0-11.112,11.111,11.125,11.125,0,0,0,11.112,11.111,11.124,11.124,0,0,0,11.111-11.111A11.123,11.123,0,0,0,2049.01-4286.461Z"/><path class="m" d="M777.394-4277.289a17.056,17.056,0,0,1-12.1-5,17.13,17.13,0,0,1,0-24.2,17.13,17.13,0,0,1,24.2,0,17.13,17.13,0,0,1,0,24.2h0A17.059,17.059,0,0,1,777.394-4277.289Zm0-28.209a11.079,11.079,0,0,0-7.857,3.249,11.125,11.125,0,0,0,0,15.714,11.126,11.126,0,0,0,15.714,0,11.125,11.125,0,0,0,0-15.714A11.078,11.078,0,0,0,777.4-4305.5Z"/><path class="m" d="M1337.032-4180.52H889.041l-104.7-104.7,4.242-4.242L891.525-4186.52h443.023l90.713-90.714h609.979v6H1427.746Z"/><path class="m" d="M2049.01-4222.72a17.13,17.13,0,0,1-17.112-17.111,17.13,17.13,0,0,1,17.112-17.111,17.13,17.13,0,0,1,17.111,17.111A17.13,17.13,0,0,1,2049.01-4222.72Zm0-28.222a11.124,11.124,0,0,0-11.112,11.111,11.124,11.124,0,0,0,11.112,11.111,11.123,11.123,0,0,0,11.111-11.111A11.123,11.123,0,0,0,2049.01-4250.942Z"/><path class="m" d="M795.537-4212.148a17.058,17.058,0,0,1-12.1-5,17.131,17.131,0,0,1,0-24.2,17.131,17.131,0,0,1,24.2,0,17,17,0,0,1,5.011,12.1,17,17,0,0,1-5.011,12.1A17.059,17.059,0,0,1,795.537-4212.148Zm0-28.209a11.08,11.08,0,0,0-7.858,3.249,11.126,11.126,0,0,0,0,15.714,11.125,11.125,0,0,0,15.714,0h0a11.038,11.038,0,0,0,3.254-7.857,11.037,11.037,0,0,0-3.254-7.857A11.079,11.079,0,0,0,795.538-4240.357Z"/><path class="m" d="M1353.159-4145.616H876.945L804.5-4218.058l4.242-4.243,70.685,70.685h471.243l90.715-90.714h593.851v6H1443.873Z"/><path class="m" d="M2049.01-4187.2a17.13,17.13,0,0,1-17.112-17.111,17.131,17.131,0,0,1,17.112-17.112,17.131,17.131,0,0,1,17.111,17.112A17.13,17.13,0,0,1,2049.01-4187.2Zm0-28.223a11.125,11.125,0,0,0-11.112,11.112,11.125,11.125,0,0,0,11.112,11.111,11.124,11.124,0,0,0,11.111-11.111A11.124,11.124,0,0,0,2049.01-4215.423Z"/><path class="m" d="M814.754-4152.306a17.058,17.058,0,0,1-12.1-5,17.13,17.13,0,0,1,0-24.2,17.129,17.129,0,0,1,24.2,0,17.13,17.13,0,0,1,0,24.2A17.055,17.055,0,0,1,814.754-4152.306Zm0-28.208a11.078,11.078,0,0,0-7.858,3.249,11.124,11.124,0,0,0,0,15.713,11.125,11.125,0,0,0,15.714,0,11.124,11.124,0,0,0,0-15.713A11.077,11.077,0,0,0,814.754-4180.514Z"/><path class="m" d="M1372.375-4109.964H867.939L821.7-4156.2l4.242-4.243,44.479,44.479H1369.89l90.715-90.714h574.635v6H1463.09Z"/></g><g class="l"><path class="m" d="M1594.047-4866.69a17.058,17.058,0,0,1-12.1-5,17,17,0,0,1-5.012-12.1,17,17,0,0,1,5.012-12.1,17.13,17.13,0,0,1,24.2,0h0a17,17,0,0,1,5.012,12.1,17,17,0,0,1-5.012,12.1A17.057,17.057,0,0,1,1594.047-4866.69Zm0-28.209a11.078,11.078,0,0,0-7.857,3.249,11.04,11.04,0,0,0-3.254,7.857,11.04,11.04,0,0,0,3.254,7.856,11.124,11.124,0,0,0,15.714,0,11.036,11.036,0,0,0,3.254-7.856,11.035,11.035,0,0,0-3.254-7.857h0A11.078,11.078,0,0,0,1594.047-4894.9Z"/><path class="m" d="M1607.256-4890.744l-4.242-4.243,161.14-161.14h390.3v6h-387.82Z"/><path class="m" d="M1593.186-4913.268a17.055,17.055,0,0,1-12.1-5,17,17,0,0,1-5.012-12.1,17,17,0,0,1,5.012-12.1,17,17,0,0,1,12.1-5.012,17,17,0,0,1,12.1,5.012h0a17,17,0,0,1,5.012,12.1,17,17,0,0,1-5.012,12.1A17.058,17.058,0,0,1,1593.186-4913.268Zm0-28.214a11.038,11.038,0,0,0-7.857,3.255,11.036,11.036,0,0,0-3.254,7.856,11.034,11.034,0,0,0,3.254,7.857,11.124,11.124,0,0,0,15.714,0,11.039,11.039,0,0,0,3.254-7.857,11.04,11.04,0,0,0-3.254-7.856h0A11.038,11.038,0,0,0,1593.187-4941.482Z"/><path class="m" d="M1603.475-4935.441l-4.242-4.243,151.28-151.281H2169.04v6H1753Z"/><path class="m" d="M1594.341-4959.845a17.057,17.057,0,0,1-12.1-5,17,17,0,0,1-5.012-12.1,17,17,0,0,1,5.012-12.1,17.13,17.13,0,0,1,24.2,0h0a16.994,16.994,0,0,1,5.012,12.1,17,17,0,0,1-5.012,12.1A17.057,17.057,0,0,1,1594.341-4959.845Zm0-28.208a11.078,11.078,0,0,0-7.858,3.249,11.038,11.038,0,0,0-3.254,7.856,11.041,11.041,0,0,0,3.254,7.857,11.125,11.125,0,0,0,15.714,0,11.037,11.037,0,0,0,3.254-7.857,11.034,11.034,0,0,0-3.254-7.856h0A11.077,11.077,0,0,0,1594.342-4988.053Z"/><path class="m" d="M1604.148-4984.187l-4.242-4.243,138.513-138.512h446.749v6H1740.9Z"/><path class="m" d="M1593.952-5006.422a17.061,17.061,0,0,1-12.1-5,17,17,0,0,1-5.011-12.1,17,17,0,0,1,5.011-12.1,17.131,17.131,0,0,1,24.2,0h0a17,17,0,0,1,5.011,12.1,17,17,0,0,1-5.011,12.1A17.062,17.062,0,0,1,1593.952-5006.422Zm0-28.208a11.076,11.076,0,0,0-7.857,3.249,11.032,11.032,0,0,0-3.254,7.856,11.036,11.036,0,0,0,3.254,7.857,11.123,11.123,0,0,0,15.713,0,11.036,11.036,0,0,0,3.254-7.857,11.032,11.032,0,0,0-3.254-7.856h0A11.075,11.075,0,0,0,1593.953-5034.63Z"/><path class="m" d="M1605.359-5032.395l-4.242-4.243,125.207-125.207h474.97v6H1728.809Z"/><path class="m" d="M1593.092-5053a17.061,17.061,0,0,1-12.1-5,17,17,0,0,1-5.012-12.1,17,17,0,0,1,5.012-12.1,17.13,17.13,0,0,1,24.2,0h0a17,17,0,0,1,5.012,12.1,17,17,0,0,1-5.012,12.1A17.062,17.062,0,0,1,1593.092-5053Zm0-28.208a11.078,11.078,0,0,0-7.857,3.249,11.038,11.038,0,0,0-3.254,7.856,11.041,11.041,0,0,0,3.254,7.857,11.125,11.125,0,0,0,15.714,0,11.037,11.037,0,0,0,3.254-7.857,11.034,11.034,0,0,0-3.254-7.856h0A11.078,11.078,0,0,0,1593.092-5081.207Z"/><path class="m" d="M1606.194-5077.889l-4.242-4.243L1717.317-5197.5H2220.51v6H1719.8Z"/></g><g class="l"><path class="m" d="M676.389-4843a17.13,17.13,0,0,1-17.111-17.111,17.131,17.131,0,0,1,17.111-17.111,17.131,17.131,0,0,1,17.112,17.111A17.13,17.13,0,0,1,676.389-4843Zm0-28.222a11.125,11.125,0,0,0-11.111,11.111A11.124,11.124,0,0,0,676.389-4849a11.124,11.124,0,0,0,11.112-11.111A11.125,11.125,0,0,0,676.389-4871.219Z"/><path class="m" d="M680.779-4872.771h-6v-96.991l168.332-168.331v-471.32h6v473.806L680.779-4967.276Z"/></g><g class="l"><path class="m" d="M-51.491-4497.069a17.13,17.13,0,0,1-17.112-17.11,17.131,17.131,0,0,1,17.112-17.111,17.13,17.13,0,0,1,17.11,17.111A17.13,17.13,0,0,1-51.491-4497.069Zm0-28.221A11.124,11.124,0,0,0-62.6-4514.179a11.124,11.124,0,0,0,11.112,11.11,11.123,11.123,0,0,0,11.11-11.11A11.123,11.123,0,0,0-51.491-4525.29Z"/><path class="m" d="M-428.307-4256.154a17.13,17.13,0,0,1-17.11-17.111,17.13,17.13,0,0,1,17.11-17.111,17.13,17.13,0,0,1,17.112,17.111A17.131,17.131,0,0,1-428.307-4256.154Zm0-28.222a11.123,11.123,0,0,0-11.11,11.111,11.124,11.124,0,0,0,11.11,11.111,11.125,11.125,0,0,0,11.112-11.111A11.124,11.124,0,0,0-428.307-4284.376Z"/><path class="m" d="M-291.319-4269.03H-411.473v-6H-293.8L-63.032-4505.8l4.242,4.243Z"/></g><g class="l"><path class="m" d="M-36.048-4178.938a17.13,17.13,0,0,1-17.111-17.111,17.13,17.13,0,0,1,17.111-17.111,17.13,17.13,0,0,1,17.11,17.111A17.129,17.129,0,0,1-36.048-4178.938Zm0-28.222a11.123,11.123,0,0,0-11.111,11.111,11.123,11.123,0,0,0,11.111,11.111,11.123,11.123,0,0,0,11.11-11.111A11.123,11.123,0,0,0-36.048-4207.16Z"/><path class="m" d="M10.281-4009.063A17.13,17.13,0,0,1-6.83-4026.174a17.13,17.13,0,0,1,17.111-17.111,17.13,17.13,0,0,1,17.111,17.111A17.13,17.13,0,0,1,10.281-4009.063Zm0-28.222A11.124,11.124,0,0,0-.83-4026.174a11.123,11.123,0,0,0,11.111,11.111,11.123,11.123,0,0,0,11.111-11.111A11.124,11.124,0,0,0,10.281-4037.285Z"/><path class="m" d="M.284-4033.627-39.2-4073.114v-107.8h6V-4075.6L4.526-4037.87Z"/></g><g class="l"><path class="m" d="M484.893-4685.476a17.13,17.13,0,0,1-17.111-17.111,17.131,17.131,0,0,1,17.111-17.111,17.131,17.131,0,0,1,17.112,17.111A17.13,17.13,0,0,1,484.893-4685.476Zm0-28.222a11.124,11.124,0,0,0-11.111,11.111,11.123,11.123,0,0,0,11.111,11.111,11.124,11.124,0,0,0,11.112-11.111A11.125,11.125,0,0,0,484.893-4713.7Z"/><path class="m" d="M145.142-4861.529a17.13,17.13,0,0,1-17.11-17.11,17.13,17.13,0,0,1,17.11-17.112,17.131,17.131,0,0,1,17.112,17.112A17.131,17.131,0,0,1,145.142-4861.529Zm0-28.222a11.124,11.124,0,0,0-11.11,11.112,11.123,11.123,0,0,0,11.11,11.11,11.124,11.124,0,0,0,11.112-11.11A11.125,11.125,0,0,0,145.142-4889.751Z"/><path class="m" d="M487.739-4712.162h-6v-83.695l-80.091-80.092H161.975v-6H404.133l83.606,83.606Z"/></g><g class="l"><path class="m" d="M1643.136-4117.165a17.13,17.13,0,0,1-17.112-17.111,17.131,17.131,0,0,1,17.112-17.111,17.131,17.131,0,0,1,17.111,17.111A17.13,17.13,0,0,1,1643.136-4117.165Zm0-28.222a11.124,11.124,0,0,0-11.112,11.111,11.124,11.124,0,0,0,11.112,11.111,11.124,11.124,0,0,0,11.111-11.111A11.123,11.123,0,0,0,1643.136-4145.387Z"/><path class="m" d="M1425.143-3763.948h-6V-3914.99l211.679-211.678,4.242,4.243L1425.143-3912.5Z"/><path class="m" d="M1581.363-4117.165a17.13,17.13,0,0,1-17.111-17.111,17.131,17.131,0,0,1,17.111-17.111,17.13,17.13,0,0,1,17.11,17.111A17.129,17.129,0,0,1,1581.363-4117.165Zm0-28.222a11.123,11.123,0,0,0-11.111,11.111,11.124,11.124,0,0,0,11.111,11.111,11.123,11.123,0,0,0,11.11-11.111A11.123,11.123,0,0,0,1581.363-4145.387Z"/><path class="m" d="M1391.168-3791.745h-6v-151.042l183.881-183.881,4.242,4.243L1391.168-3940.3Z"/><path class="m" d="M1519.59-4117.165a17.13,17.13,0,0,1-17.112-17.111,17.131,17.131,0,0,1,17.112-17.111,17.131,17.131,0,0,1,17.111,17.111A17.13,17.13,0,0,1,1519.59-4117.165Zm0-28.222a11.124,11.124,0,0,0-11.112,11.111,11.124,11.124,0,0,0,11.112,11.111,11.124,11.124,0,0,0,11.111-11.111A11.123,11.123,0,0,0,1519.59-4145.387Z"/><path class="m" d="M1357.193-3819.543h-6v-151.042l156.083-156.083,4.242,4.243L1357.193-3968.1Z"/></g><g class="l"><path class="m" d="M736.618-4674.666a17.129,17.129,0,0,1-17.111-17.11,17.13,17.13,0,0,1,17.111-17.112,17.13,17.13,0,0,1,17.111,17.112A17.129,17.129,0,0,1,736.618-4674.666Zm0-28.222a11.124,11.124,0,0,0-11.111,11.112,11.123,11.123,0,0,0,11.111,11.11,11.123,11.123,0,0,0,11.111-11.11A11.124,11.124,0,0,0,736.618-4702.888Z"/><path class="m" d="M841.633-4974.264a17.13,17.13,0,0,1-17.112-17.111,17.13,17.13,0,0,1,17.112-17.111,17.13,17.13,0,0,1,17.11,17.111A17.13,17.13,0,0,1,841.633-4974.264Zm0-28.222a11.124,11.124,0,0,0-11.112,11.111,11.124,11.124,0,0,0,11.112,11.111,11.123,11.123,0,0,0,11.11-11.111A11.123,11.123,0,0,0,841.633-5002.486Z"/><path class="m" d="M747.85-4697.686l-4.242-4.243,96.414-96.414v-179.443h6v181.929Z"/></g><g class="l"><path class="m" d="M665.579-4245.344a17.129,17.129,0,0,1-17.11-17.111,17.129,17.129,0,0,1,17.11-17.111,17.13,17.13,0,0,1,17.111,17.111A17.13,17.13,0,0,1,665.579-4245.344Zm0-28.222a11.123,11.123,0,0,0-11.11,11.111,11.123,11.123,0,0,0,11.11,11.111,11.123,11.123,0,0,0,11.111-11.111A11.123,11.123,0,0,0,665.579-4273.566Z"/><path class="m" d="M736.554-3717.557,730.4-4019.037l-67.976-67.975v-161.852h6V-4089.5l67.925,67.925.024,1.207,6.178,302.687Z"/></g><g class="l"><path class="m" d="M869.43-4022.962a17.13,17.13,0,0,1-17.111-17.11,17.131,17.131,0,0,1,17.111-17.112,17.131,17.131,0,0,1,17.111,17.112A17.13,17.13,0,0,1,869.43-4022.962Zm0-28.222a11.125,11.125,0,0,0-11.111,11.112,11.124,11.124,0,0,0,11.111,11.11,11.124,11.124,0,0,0,11.111-11.11A11.125,11.125,0,0,0,869.43-4051.184Z"/><path class="m" d="M1240.067-4022.962a17.13,17.13,0,0,1-17.111-17.11,17.131,17.131,0,0,1,17.111-17.112,17.131,17.131,0,0,1,17.112,17.112A17.13,17.13,0,0,1,1240.067-4022.962Zm0-28.222a11.124,11.124,0,0,0-11.111,11.112,11.123,11.123,0,0,0,11.111,11.11,11.124,11.124,0,0,0,11.112-11.11A11.125,11.125,0,0,0,1240.067-4051.184Z"/><rect class="m" width="339.751" height="6" transform="translate(884.719 -4041.837)"/></g><g class="l"><path class="m" d="M1700.275-4007.518a17.13,17.13,0,0,1-17.111-17.111,17.13,17.13,0,0,1,17.111-17.111,17.131,17.131,0,0,1,17.112,17.111A17.131,17.131,0,0,1,1700.275-4007.518Zm0-28.222a11.123,11.123,0,0,0-11.111,11.111,11.124,11.124,0,0,0,11.111,11.111,11.124,11.124,0,0,0,11.112-11.111A11.124,11.124,0,0,0,1700.275-4035.74Z"/><path class="m" d="M1777.492-4084.735a17.129,17.129,0,0,1-17.111-17.11,17.13,17.13,0,0,1,17.111-17.111,17.13,17.13,0,0,1,17.11,17.111A17.129,17.129,0,0,1,1777.492-4084.735Zm0-28.221a11.123,11.123,0,0,0-11.111,11.111,11.123,11.123,0,0,0,11.111,11.11,11.123,11.123,0,0,0,11.11-11.11A11.123,11.123,0,0,0,1777.492-4112.956Z"/><rect class="m" width="82.992" height="6" transform="translate(1707.264 -4034.783) rotate(-44.997)"/></g><g class="l"><path class="m" d="M1258.6-4322.56a17.13,17.13,0,0,1-17.111-17.111,17.131,17.131,0,0,1,17.111-17.111,17.131,17.131,0,0,1,17.112,17.111A17.13,17.13,0,0,1,1258.6-4322.56Zm0-28.222a11.123,11.123,0,0,0-11.111,11.111,11.123,11.123,0,0,0,11.111,11.111,11.124,11.124,0,0,0,11.112-11.111A11.124,11.124,0,0,0,1258.6-4350.782Z"/><path class="m" d="M992.975-4322.56a17.13,17.13,0,0,1-17.11-17.111,17.13,17.13,0,0,1,17.11-17.111,17.131,17.131,0,0,1,17.112,17.111A17.13,17.13,0,0,1,992.975-4322.56Zm0-28.222a11.123,11.123,0,0,0-11.11,11.111,11.123,11.123,0,0,0,11.11,11.111,11.124,11.124,0,0,0,11.112-11.111A11.124,11.124,0,0,0,992.975-4350.782Z"/><rect class="m" width="234.737" height="6" transform="translate(1008.264 -4341.436)"/></g><g class="l"><path class="m" d="M977.533-4470.815a17.13,17.13,0,0,1-17.111-17.111,17.13,17.13,0,0,1,17.111-17.111,17.13,17.13,0,0,1,17.11,17.111A17.13,17.13,0,0,1,977.533-4470.815Zm0-28.222a11.123,11.123,0,0,0-11.111,11.111,11.123,11.123,0,0,0,11.111,11.111,11.123,11.123,0,0,0,11.11-11.111A11.123,11.123,0,0,0,977.533-4499.037Z"/><path class="m" d="M1684.832-4832.187a17.129,17.129,0,0,1-17.111-17.11,17.131,17.131,0,0,1,17.111-17.111,17.131,17.131,0,0,1,17.111,17.111A17.129,17.129,0,0,1,1684.832-4832.187Zm0-28.221a11.124,11.124,0,0,0-11.111,11.111,11.124,11.124,0,0,0,11.111,11.11,11.123,11.123,0,0,0,11.111-11.11A11.123,11.123,0,0,0,1684.832-4860.408Z"/><path class="m" d="M988.765-4490.747l-4.242-4.243,184.65-184.65,338.979-.772,162.822-162.822,4.242,4.243-164.574,164.574-338.979.772Z"/></g><g class="l"><path class="m" d="M1480.981-5363.434a17.129,17.129,0,0,1-17.11-17.11,17.13,17.13,0,0,1,17.11-17.111,17.13,17.13,0,0,1,17.112,17.111A17.13,17.13,0,0,1,1480.981-5363.434Zm0-28.221a11.123,11.123,0,0,0-11.11,11.111,11.123,11.123,0,0,0,11.11,11.11,11.124,11.124,0,0,0,11.112-11.11A11.124,11.124,0,0,0,1480.981-5391.655Z"/><path class="m" d="M1783.669-5363.434a17.13,17.13,0,0,1-17.112-17.11,17.13,17.13,0,0,1,17.112-17.111,17.13,17.13,0,0,1,17.111,17.111A17.129,17.129,0,0,1,1783.669-5363.434Zm0-28.221a11.124,11.124,0,0,0-11.112,11.111,11.124,11.124,0,0,0,11.112,11.11,11.123,11.123,0,0,0,11.111-11.11A11.123,11.123,0,0,0,1783.669-5391.655Z"/><path class="m" d="M1710.629-5303.726H1552.168l-64.2-64.2,4.242-4.243,62.438,62.438h153.492l63.211-63.211,4.242,4.243Z"/></g><g class="l"><path class="m" d="M1189.278-4508.778l-2.556-9.668c30.876-8.166,47.992-6.858,64.547-5.591,16.449,1.26,31.985,2.447,61.229-5.288s42.163-16.449,55.839-25.676c13.763-9.285,27.995-18.887,58.874-27.054s48-6.858,64.55-5.591c16.448,1.258,31.986,2.445,61.232-5.289l2.557,9.667c-30.878,8.167-48,6.859-64.551,5.592-16.451-1.256-31.988-2.446-61.231,5.289s-42.162,16.45-55.838,25.676c-13.764,9.285-28,18.886-58.875,27.054s-48,6.857-64.549,5.591C1234.057-4515.323,1218.521-4516.513,1189.278-4508.778Z"/><path class="m" d="M1198.708-4473.13l-2.557-9.668c30.876-8.166,47.995-6.857,64.547-5.591,16.45,1.259,31.985,2.448,61.229-5.288s42.162-16.449,55.839-25.675c13.763-9.286,27.995-18.886,58.874-27.054s47.995-6.859,64.55-5.592c16.449,1.259,31.986,2.446,61.231-5.289l2.558,9.668c-30.879,8.167-48,6.858-64.552,5.592-16.447-1.257-31.986-2.448-61.23,5.289s-42.163,16.449-55.839,25.676c-13.763,9.285-27.995,18.886-58.874,27.053s-47.995,6.857-64.549,5.591C1243.487-4479.674,1227.951-4480.864,1198.708-4473.13Z"/><path class="m" d="M1208.136-4437.481l-2.556-9.668c30.876-8.166,47.992-6.858,64.547-5.591,16.448,1.259,31.985,2.447,61.229-5.288s42.162-16.449,55.838-25.676c13.764-9.285,28-18.887,58.875-27.054s48-6.855,64.551-5.592c16.45,1.261,31.987,2.449,61.231-5.288l2.557,9.668c-30.879,8.166-48,6.856-64.551,5.592-16.449-1.259-31.986-2.446-61.231,5.288s-42.163,16.449-55.839,25.676c-13.764,9.285-27.995,18.886-58.874,27.054s-48,6.856-64.549,5.591C1252.916-4444.025,1237.378-4445.216,1208.136-4437.481Z"/><path class="m" d="M1605.477-4608.234l-15.6,4.67,2.041,6.819,15.6-4.671a3.553,3.553,0,0,0,2.387-4.425,3.546,3.546,0,0,0-1.715-2.116A3.553,3.553,0,0,0,1605.477-4608.234Z"/><rect class="m" width="28.672" height="21.175" transform="translate(1557.887 -4601.324) rotate(-16.664)"/><rect class="m" width="6.741" height="21.175" transform="translate(1548.3 -4598.455) rotate(-16.664)"/><path class="m" d="M1614.673-4571.891l-15.6,4.671,2.041,6.818,15.6-4.671a3.553,3.553,0,0,0,2.386-4.425,3.545,3.545,0,0,0-1.715-2.116A3.554,3.554,0,0,0,1614.673-4571.891Z"/><rect class="m" width="28.672" height="21.175" transform="translate(1567.082 -4564.981) rotate(-16.664)"/><rect class="m" width="6.741" height="21.175" transform="translate(1557.495 -4562.111) rotate(-16.664)"/><path class="m" d="M1623.868-4535.548l-15.6,4.671,2.041,6.818,15.6-4.671a3.553,3.553,0,0,0,2.386-4.425,3.543,3.543,0,0,0-1.715-2.116A3.551,3.551,0,0,0,1623.868-4535.548Z"/><rect class="m" width="28.672" height="21.175" transform="translate(1576.278 -4528.638) rotate(-16.664)"/><rect class="m" width="6.741" height="21.175" transform="translate(1566.69 -4525.769) rotate(-16.664)"/><path class="m" d="M1154.433-4422.435l15.6-4.67-2.041-6.819-15.6,4.671a3.553,3.553,0,0,0-2.387,4.425,3.546,3.546,0,0,0,1.715,2.116A3.553,3.553,0,0,0,1154.433-4422.435Z"/><rect class="m" width="28.672" height="21.175" transform="translate(1168.483 -4441.409) rotate(-16.664)"/><rect class="m" width="6.741" height="21.175" transform="translate(1199.08 -4450.567) rotate(-16.664)"/><path class="m" d="M1145.237-4458.778l15.6-4.671-2.041-6.818-15.6,4.671a3.553,3.553,0,0,0-2.386,4.425,3.545,3.545,0,0,0,1.715,2.116A3.554,3.554,0,0,0,1145.237-4458.778Z"/><rect class="m" width="28.672" height="21.175" transform="translate(1159.288 -4477.751) rotate(-16.664)"/><rect class="m" width="6.741" height="21.175" transform="translate(1189.885 -4486.911) rotate(-16.664)"/><path class="m" d="M1136.042-4495.121l15.6-4.671-2.041-6.818-15.6,4.67a3.554,3.554,0,0,0-2.386,4.426,3.543,3.543,0,0,0,1.715,2.116A3.551,3.551,0,0,0,1136.042-4495.121Z"/><rect class="m" width="28.672" height="21.175" transform="translate(1150.093 -4514.095) rotate(-16.664)"/><rect class="m" width="6.741" height="21.175" transform="translate(1180.689 -4523.253) rotate(-16.664)"/></g><g class="l"><path class="m" d="M516.166-5090.262c-7.525-15.17-19.82-21.619-37.061-18.943-.9-3.413-1.863-6.863-2.718-10.339-2.689-10.918-5.248-21.862-6.085-33.119-.922-12.392-.027-24.543,5.642-35.866,7.015-14.005,18.678-21.552,34.034-23.3,17.706-2.018,33.673,3.349,48.4,12.683,21,13.31,35.112,32.184,43.507,55.436a127.3,127.3,0,0,1,7.166,46.563,17.8,17.8,0,0,1-.972,5.255,3.423,3.423,0,0,1-4.176,2.445l-.093-.025a20.122,20.122,0,0,1-5.06-1.732,80.929,80.929,0,0,0-56.551-6.522C533.472-5095.682,524.943-5092.806,516.166-5090.262Z"/><path class="m" d="M461.853-5098.125a32.3,32.3,0,0,0,1.956,41.82c-3.422,3.342-6.811,6.731-10.281,10.037-9.351,8.908-18.951,17.517-30.3,23.889-8.022,4.506-16.478,7.771-25.759,8.467-15.456,1.157-27.816-4.722-37.308-16.743-8.332-10.556-12.53-22.854-13.538-36.077-3-39.321,12.967-70.33,42.774-94.851,5.957-4.9,12.807-8.72,19.288-12.972a17.072,17.072,0,0,1,3.666-1.661c3.6-1.278,5.893-.014,6.634,3.76a54.752,54.752,0,0,1,.63,5.924,79.9,79.9,0,0,0,21.075,48.318c6.125,6.7,13.141,12.594,19.756,18.85C460.914-5098.938,461.39-5098.534,461.853-5098.125Z"/><path class="m" d="M481.912-5046.918a32.238,32.238,0,0,0,35.274-22.472c1.014.262,2.051.515,3.078.8,12.686,3.5,25.357,7.046,37.377,12.524a81.472,81.472,0,0,1,21.467,13.792c16.951,15.49,20.287,36.654,8.831,56.56-8.018,13.926-19.846,23.8-34.071,30.787-27.2,13.368-55.279,14.177-83.883,5.089a127.3,127.3,0,0,1-27.742-12.81,20.759,20.759,0,0,1-4.07-3.189c-1.833-1.883-1.816-3.853-.075-5.839a14.5,14.5,0,0,1,3.037-2.637c19.153-12.26,30.685-29.9,36.3-51.635,1.6-6.2,2.722-12.526,4.062-18.8C481.637-5045.429,481.759-5046.113,481.912-5046.918Z"/><path class="m" d="M482.717-5100.408a22.444,22.444,0,0,1,26.1,18.067l.024.132a22.427,22.427,0,0,1-18.088,26.031,22.494,22.494,0,0,1-26.218-18.017c-.015-.081-.03-.162-.044-.244A22.521,22.521,0,0,1,482.717-5100.408Z"/></g><g class="l"><path class="m" d="M1198.025-5047.906l0,238.985-8.847-.005-.014-238.983Z"/><path class="m" d="M1233.419-5047.91l.01,177.029-8.847-.005-.007-177.018Z"/><path class="m" d="M1198.024-5065.6l26.547-.009,0,17.7-26.549,0Z"/><path class="m" d="M1251.127-5140.841l.005,75.234,1.688,0a7.148,7.148,0,0,1,7.153,7.151l-.005,10.545h-26.549v-17.68l.005-35.407-44.254-.01-.005,35.407v17.691h-26.56l.007-10.534a7.171,7.171,0,0,1,7.159-7.168l1.689,0,.006-75.236a39.848,39.848,0,0,1,32.551-39.168,40.62,40.62,0,0,1,7.28-.66A39.835,39.835,0,0,1,1251.127-5140.841Z"/></g><g class="l"><rect class="m" width="12.915" height="63.196" transform="translate(-126.77 -5217.409)"/><path class="m" d="M-182.115-4876.818v33.806H-158.6v-33.806Zm16.011,18.763a4.253,4.253,0,0,1-4.253,4.253,4.253,4.253,0,0,1-4.252-4.253v-7.973h8.5Z"/><path class="m" d="M-86.35-4876.818v33.806h23.517v-33.806Zm16.011,18.763a4.253,4.253,0,0,1-4.253,4.253,4.253,4.253,0,0,1-4.252-4.253v-7.973h8.505Z"/><path class="m" d="M9.044,0H62.58a9.044,9.044,0,0,1,9.044,9.044v10.77a0,0,0,0,1,0,0H0a0,0,0,0,1,0,0V9.044A9.044,9.044,0,0,1,9.044,0Z" transform="translate(-156.124 -5150.243)"/><path class="m" d="M14.574,0H189.5a14.574,14.574,0,0,1,14.574,14.574V224.841a0,0,0,0,1,0,0H0a0,0,0,0,1,0,0V14.574A14.574,14.574,0,0,1,14.574,0Z" transform="translate(-222.755 -5126.459)"/><path class="m" d="M0,0H204.077a0,0,0,0,1,0,0V0a15.585,15.585,0,0,1-15.585,15.585H15.585A15.585,15.585,0,0,1,0,0V0A0,0,0,0,1,0,0Z" transform="translate(-222.755 -4896.971)"/></g></g></g></g></g></svg>